<?xml version="1.0" encoding="UTF-8" standalone="no" ?>
<!DOCTYPE svg PUBLIC "-//W3C//DTD SVG 1.1//EN" "http://www.w3.org/Graphics/SVG/1.1/DTD/svg11.dtd">
<svg xmlns="http://www.w3.org/2000/svg" xmlns:xlink="http://www.w3.org/1999/xlink" version="1.1" width="1080" height="1080" viewBox="0 0 1080 1080" xml:space="preserve">
<desc>Created with Fabric.js 5.2.4</desc>
<defs>
</defs>
<g transform="matrix(1 0 0 1 540 540)" id="a6339b80-3685-4585-8d6e-97bcf3676467"  >
</g>
<g transform="matrix(1 0 0 1 540 540)" id="48716cf0-80ee-4f87-ac21-740244c9ff67"  >
<rect style="stroke: none; stroke-width: 1; stroke-dasharray: none; stroke-linecap: butt; stroke-dashoffset: 0; stroke-linejoin: miter; stroke-miterlimit: 4; fill: rgb(255,255,255); fill-rule: nonzero; opacity: 1; visibility: hidden;" vector-effect="non-scaling-stroke"  x="-540" y="-540" rx="0" ry="0" width="1080" height="1080" />
</g>
<g transform="matrix(9.65 0 0 9.65 540 540)"  >
<g style="" vector-effect="non-scaling-stroke"   >
		<g transform="matrix(0.23 0 0 0.23 -0.7 -1.06)"  >
<path style="stroke: none; stroke-width: 1; stroke-dasharray: none; stroke-linecap: butt; stroke-dashoffset: 0; stroke-linejoin: miter; stroke-miterlimit: 4; fill: rgb(255,255,255); fill-rule: nonzero; opacity: 1;" vector-effect="non-scaling-stroke"  transform=" translate(-17.78, -20.19)" d="M 11.2302 24.3207 L 14.7526 26.3435 L 14.7526 21.7777 L 24.3381 16.1716 L 20.8735 14.0332 L 11.2302 19.6971 L 11.2302 24.3207 Z" stroke-linecap="round" />
</g>
		<g transform="matrix(0.23 0 0 0.23 -1.41 -2.26)"  >
<path style="stroke: none; stroke-width: 1; stroke-dasharray: none; stroke-linecap: butt; stroke-dashoffset: 0; stroke-linejoin: miter; stroke-miterlimit: 4; fill: rgb(255,255,255); fill-rule: nonzero; opacity: 1;" vector-effect="non-scaling-stroke"  transform=" translate(-14.55, -14.84)" d="M 20.8735 0.97168 L 28.8421 5.59527 L 7.8811 18.0212 L 7.8811 28.7132 L 0.258911 24.263 L 0.258911 12.993 L 20.8735 0.97168 Z" stroke-linecap="round" />
</g>
		<g transform="matrix(0.23 0 0 0.23 1.3 0.03)"  >
<path style="stroke: none; stroke-width: 1; stroke-dasharray: none; stroke-linecap: butt; stroke-dashoffset: 0; stroke-linejoin: miter; stroke-miterlimit: 4; fill: rgb(255,255,255); fill-rule: nonzero; opacity: 1;" vector-effect="non-scaling-stroke"  transform=" translate(-26.65, -24.99)" d="M 26.4168 17.3855 L 22.8945 19.4083 L 26.9365 21.7779 L 26.8788 32.5855 L 30.4012 30.5627 L 30.4012 19.6973 L 26.4168 17.3855 Z" stroke-linecap="round" />
</g>
		<g transform="matrix(0.23 0 0 0.23 2.73 -0.05)"  >
<path style="stroke: none; stroke-width: 1; stroke-dasharray: none; stroke-linecap: butt; stroke-dashoffset: 0; stroke-linejoin: miter; stroke-miterlimit: 4; fill: rgb(255,255,255); fill-rule: nonzero; opacity: 1;" vector-effect="non-scaling-stroke"  transform=" translate(-32.86, -24.55)" d="M 41.6612 36.8622 L 33.6925 41.6014 L 33.6925 17.8477 L 24.0493 12.1838 L 32.1335 7.50244 L 41.6612 13.0507 L 41.6612 36.8622 Z" stroke-linecap="round" />
</g>
		<g transform="matrix(0.23 0 0 0.23 -0.64 1.49)"  >
<path style="stroke: none; stroke-width: 1; stroke-dasharray: none; stroke-linecap: butt; stroke-dashoffset: 0; stroke-linejoin: miter; stroke-miterlimit: 4; fill: rgb(255,255,255); fill-rule: nonzero; opacity: 1;" vector-effect="non-scaling-stroke"  transform=" translate(-18.04, -31.46)" d="M 24.8578 33.857 L 24.8578 29.9269 L 20.8157 32.2965 L 11.2302 26.6904 L 11.2302 30.6205 L 20.8734 36.2266 L 24.8578 33.857 Z" stroke-linecap="round" />
</g>
		<g transform="matrix(0.23 0 0 0.23 -1.23 3.13)"  >
<path style="stroke: none; stroke-width: 1; stroke-dasharray: none; stroke-linecap: butt; stroke-dashoffset: 0; stroke-linejoin: miter; stroke-miterlimit: 4; fill: rgb(255,255,255); fill-rule: nonzero; opacity: 1;" vector-effect="non-scaling-stroke"  transform=" translate(-15.33, -38.62)" d="M 0.258911 37.0355 L 0.258911 28.2507 L 20.8735 40.0409 L 30.3435 34.377 L 30.4012 43.5086 L 21.1045 48.9991 L 0.258911 37.0355 Z" stroke-linecap="round" />
</g>
</g>
</g>
</svg>