<?xml version="1.0" standalone="no"?>
<!DOCTYPE svg PUBLIC "-//W3C//DTD SVG 1.1//EN" "http://www.w3.org/Graphics/SVG/1.1/DTD/svg11.dtd">
<svg xmlns:inkscape="http://www.inkscape.org/namespaces/inkscape" xmlns:sodipodi="http://sodipodi.sourceforge.net/DTD/sodipodi-0.dtd" xmlns="http://www.w3.org/2000/svg" xmlns:svg="http://www.w3.org/2000/svg" width="100" height="100" viewBox="0 0 100 100" version="1.1" id="svg1" inkscape:version="1.3 (0e150ed6c4, 2023-07-21)" sodipodi:docname="V2Logo.svg">
  <sodipodi:namedview id="namedview1" pagecolor="#ffffff" bordercolor="#000000" borderopacity="0.25" inkscape:showpageshadow="2" inkscape:pageopacity="0.0" inkscape:pagecheckerboard="0" inkscape:deskcolor="#d1d1d1" inkscape:document-units="mm" inkscape:zoom="2.6257248" inkscape:cx="168.90575" inkscape:cy="190.99488" inkscape:window-width="1920" inkscape:window-height="1111" inkscape:window-x="-9" inkscape:window-y="-9" inkscape:window-maximized="1" inkscape:current-layer="svg1"/>
  <defs id="defs1"/>
  <circle style="display:inline;fill:#e25e3e;fill-opacity:1;stroke-width:0.304915" id="path2" cx="50" cy="50" r="25"/>
  <path id="path4" style="fill:#ffbb5c;fill-opacity:1;stroke-width:0.612086" d="M 18.60765 24.682214 A 44.999954 13.404721 30.00045 0 0 11.028784 27.499613 A 44.999954 13.404721 30.00045 0 0 43.297616 61.608643 A 44.999954 13.404721 30.00045 0 0 46.331022 63.28761 A 10.398813 35.999965 60.00045 0 1 18.660876 67.718347 A 10.398813 35.999965 60.00045 0 1 23.47712 56.921073 A 27.5 27.5 0 0 1 22.746415 53.069629 A 13.404721 44.999954 60.00045 0 0 11.028784 72.499451 A 13.404721 44.999954 60.00045 0 0 50.026404 65.240462 A 44.999954 13.404721 30.00045 0 0 88.970797 72.500484 A 44.999954 13.404721 30.00045 0 0 77.262467 53.04069 A 27.5 27.5 0 0 1 76.512126 56.97585 A 35.999965 10.398813 30.00045 0 1 81.338704 67.718864 A 35.999965 10.398813 30.00045 0 1 53.687162 63.302079 A 13.404721 44.999954 60.00045 0 0 56.702482 61.608643 A 13.404721 44.999954 60.00045 0 0 88.971313 27.50013 A 13.404721 44.999954 60.00045 0 0 81.392448 24.682731 A 13.404721 44.999954 60.00045 0 0 66.216113 27.972453 A 27.5 27.5 0 0 1 69.214897 30.553174 A 10.398813 35.999965 60.00045 0 1 81.014176 31.718994 A 10.398813 35.999965 60.00045 0 1 72.23125 46.507756 C 72.387645 46.399061 72.54024 46.284932 72.697888 46.17806 C 72.567471 46.283237 72.438007 46.389617 72.307214 46.49432 C 72.152243 46.617309 71.996112 46.73879 71.841093 46.861739 A 10.398813 35.999965 60.00045 0 1 55.036951 58.724581 A 10.398813 35.999965 60.00045 0 1 49.99023 61.471183 A 35.999965 10.398813 30.00045 0 1 44.96263 58.724581 A 35.999965 10.398813 30.00045 0 1 18.985921 31.718477 A 35.999965 10.398813 30.00045 0 1 30.695801 30.606917 A 27.5 27.5 0 0 1 33.757113 27.965735 A 44.999954 13.404721 30.00045 0 0 18.60765 24.682214 z M 58.865658 58.441911 C 58.847508 58.455201 58.828374 58.468978 58.810364 58.482218 C 58.820874 58.472918 58.831386 58.463613 58.841886 58.454313 C 58.849816 58.450213 58.857758 58.446011 58.865658 58.441911 z "/>
  <g inkscape:label="Calque 1" inkscape:groupmode="layer" id="layer1"/>
</svg>