<svg width="333.2" height="93.1" viewBox="0 0 333.2 93.1" xmlns="http://www.w3.org/2000/svg"><g id="svgGroup" stroke-linecap="round" fill-rule="evenodd" font-size="9pt" stroke="#000" stroke-width="2mm" fill="#000" style="stroke:#000;stroke-width:2mm;fill:#000"><path d="M 8.7 71.4 L 0 62.7 L 0 57.4 L 5.7 57.4 L 5.7 60.7 L 11.1 66.2 L 35.8 66.2 L 41.3 60.5 L 41.3 43.5 L 35.8 38 L 8.9 38 L 0.2 29.4 L 0.2 10.1 L 8.9 1.4 L 37.5 1.4 L 46.2 10.1 L 46.2 15.5 L 40.5 15.5 L 40.5 12 L 35 6.6 L 11.4 6.6 L 5.9 12 L 5.9 27.4 L 11.4 32.8 L 38.3 32.8 L 47 41.5 L 47 62.5 L 38.1 71.4 L 8.7 71.4 Z" id="0" vector-effect="non-scaling-stroke"/><path d="M 68.7 71.4 L 60 62.7 L 60 30.3 L 68.7 21.6 L 93.5 21.6 L 102.2 30.3 L 102.2 62.7 L 93.5 71.4 L 68.7 71.4 Z M 71.1 66.3 L 91.1 66.3 L 96.6 60.9 L 96.6 32 L 91.1 26.6 L 71.1 26.6 L 65.6 32 L 65.6 60.9 L 71.1 66.3 Z" id="1" vector-effect="non-scaling-stroke"/><path d="M 117.7 71.4 L 117.7 0 L 123.3 0 L 123.3 71.4 L 117.7 71.4 Z" id="2" vector-effect="non-scaling-stroke"/><path d="M 146 71.4 L 138.3 63.7 L 138.3 50.6 L 146 43.1 L 173 43.1 L 173 32 L 167.5 26.5 L 149.9 26.5 L 144.3 32 L 144.3 36.5 L 138.7 36.5 L 138.7 30.3 L 147.4 21.6 L 169.9 21.6 L 178.6 30.3 L 178.6 71.4 L 173.1 71.4 L 173.1 61.7 L 163.1 71.4 L 146 71.4 Z M 148.3 66.4 L 161.8 66.4 L 173 55.4 L 173 48.1 L 148.3 48.1 L 143.9 52.3 L 143.9 62.1 L 148.3 66.4 Z" id="3" vector-effect="non-scaling-stroke"/><path d="M 194.1 71.4 L 194.1 21.6 L 199.6 21.6 L 199.6 30.9 L 209 21.6 L 221.3 21.6 L 221.3 26.6 L 210.6 26.6 L 199.7 37.4 L 199.7 71.4 L 194.1 71.4 Z" id="4" vector-effect="non-scaling-stroke"/><path d="M 232.8 71.4 L 232.8 21.6 L 238.4 21.6 L 238.4 71.4 L 232.8 71.4 Z M 233.8 12.4 L 231.3 9.9 L 231.3 6.1 L 233.8 3.6 L 237.4 3.6 L 239.9 6.1 L 239.9 9.9 L 237.4 12.4 L 233.8 12.4 Z" id="5" vector-effect="non-scaling-stroke"/><path d="M 268.6 71.4 L 259.9 62.7 L 259.9 26.5 L 250.9 26.5 L 250.9 21.6 L 260.1 21.6 L 260.1 5.4 L 265.5 5.4 L 265.5 21.6 L 281.1 21.6 L 281.1 26.6 L 265.5 26.6 L 265.5 60.9 L 271 66.4 L 281.1 66.4 L 281.1 71.4 L 268.6 71.4 Z" id="6" vector-effect="non-scaling-stroke"/><path d="M 327.6 21.6 L 333.2 21.6 L 333.2 84.5 L 324.5 93.1 L 301.2 93.1 L 294.1 86.1 L 294.1 80.4 L 299.7 80.4 L 299.7 84.3 L 303.6 88.1 L 322.1 88.1 L 327.6 82.7 L 327.6 59.6 L 315.8 71.4 L 301.3 71.4 L 292.6 62.7 L 292.6 21.6 L 298.2 21.6 L 298.2 60.9 L 303.7 66.3 L 314.2 66.3 L 327.6 52.8 L 327.6 21.6 Z" id="7" vector-effect="non-scaling-stroke"/></g></svg>