<?xml version="1.0" standalone="no"?>
<!DOCTYPE svg PUBLIC "-//W3C//DTD SVG 20010904//EN"
 "http://www.w3.org/TR/2001/REC-SVG-20010904/DTD/svg10.dtd">
<svg version="1.0" xmlns="http://www.w3.org/2000/svg"
 width="600.000000pt" height="576.000000pt" viewBox="0 0 600.000000 576.000000"
 preserveAspectRatio="xMidYMid meet">

<g transform="translate(0.000000,576.000000) scale(0.100000,-0.100000)"
fill="#000000" stroke="none">
<path d="M1345 5751 c-75 -19 -163 -88 -197 -155 -22 -43 -28 -111 -15 -158 6
-24 4 -28 -13 -28 -17 0 -20 -7 -20 -46 0 -71 19 -134 44 -144 26 -10 46 -73
53 -166 5 -61 4 -62 -30 -88 -60 -46 -186 -114 -281 -151 -50 -19 -122 -57
-161 -83 -61 -41 -75 -56 -105 -116 l-35 -69 -6 -181 c-4 -142 -10 -198 -28
-261 -12 -44 -24 -107 -28 -140 -3 -36 -18 -84 -35 -119 -41 -82 -76 -226 -88
-365 -6 -65 -27 -183 -48 -270 l-37 -153 -50 -33 c-45 -29 -82 -66 -155 -155
-14 -17 -43 -37 -65 -44 -42 -15 -55 -37 -35 -61 16 -20 73 -19 111 1 30 15
31 15 24 -8 -4 -13 -29 -70 -56 -127 -51 -109 -58 -141 -35 -160 32 -27 72 18
126 139 19 41 38 80 43 85 8 10 -2 -17 -58 -157 -31 -78 -31 -131 1 -136 30
-4 52 26 93 133 l38 98 -5 -107 c-4 -92 -2 -106 12 -112 21 -8 52 19 61 54 4
15 13 68 20 117 l13 90 1 -81 c1 -84 16 -122 43 -111 20 7 28 51 28 161 0 50
4 107 10 126 5 19 16 81 25 136 17 118 82 291 188 499 78 154 102 223 116 331
6 43 19 111 30 149 15 57 20 65 25 45 32 -137 38 -174 37 -235 -2 -122 -22
-277 -47 -356 -13 -42 -28 -118 -35 -170 -6 -52 -20 -134 -30 -182 -11 -49
-25 -163 -31 -255 -10 -155 -9 -176 11 -292 11 -69 41 -208 65 -310 69 -292
75 -364 65 -860 -4 -166 -2 -181 25 -290 15 -63 51 -189 79 -280 46 -149 51
-175 53 -270 1 -58 5 -126 9 -151 6 -37 3 -54 -15 -90 -12 -24 -28 -51 -35
-59 -28 -32 -28 -65 0 -98 l26 -31 125 3 c94 2 129 6 140 17 8 9 17 43 20 80
7 76 -11 325 -24 342 -37 47 -43 197 -21 527 12 180 6 345 -17 418 -19 64 -18
105 7 187 18 60 22 109 29 355 7 242 22 446 34 457 7 7 39 -371 46 -547 6
-156 12 -212 31 -281 22 -84 23 -88 8 -215 -18 -163 -15 -311 8 -439 26 -141
26 -455 1 -504 -15 -28 -18 -61 -18 -182 l0 -148 33 -25 c30 -23 41 -25 122
-23 50 0 96 -2 103 -6 6 -5 18 -5 25 0 6 4 19 8 27 8 19 0 38 52 25 69 -6 7
-28 39 -49 70 l-39 56 6 122 c7 123 39 299 102 563 46 193 52 284 29 446 -15
116 -16 154 -7 327 10 179 16 218 63 427 49 217 52 240 57 408 6 198 -5 334
-43 516 -13 64 -24 147 -24 186 0 39 -4 86 -10 105 -5 19 -10 120 -11 225 -1
195 9 266 53 374 l14 34 36 -124 c21 -68 40 -151 44 -184 10 -88 64 -230 127
-334 70 -117 119 -232 123 -295 2 -27 10 -58 18 -70 7 -12 16 -42 19 -66 3
-25 11 -72 17 -105 6 -33 14 -110 18 -171 7 -110 18 -144 48 -144 23 0 34 36
32 102 l-2 63 -3 -55 c-4 -66 -11 -100 -21 -100 -29 1 -36 24 -43 132 -4 62
-12 140 -18 173 -6 33 -15 83 -19 110 -5 28 -14 60 -20 72 -7 12 -12 33 -12
47 0 22 7 27 52 41 68 20 148 20 148 1 0 -10 -14 -16 -42 -19 -38 -4 -37 -4 9
-4 43 0 61 -5 104 -34 28 -19 68 -59 90 -89 24 -34 61 -69 97 -91 65 -41 73
-62 24 -67 -23 -2 -50 6 -86 27 l-53 30 8 -44 c5 -24 20 -63 35 -86 37 -60 84
-161 84 -182 0 -13 -6 -17 -22 -15 -17 2 -38 31 -83 110 -33 60 -66 108 -72
108 -18 0 -17 -3 16 -69 35 -68 71 -171 71 -201 0 -16 -5 -21 -22 -18 -25 3
-64 73 -98 174 -11 34 -28 70 -36 80 -14 18 -15 17 -10 -16 31 -204 31 -240 2
-240 -24 0 -32 26 -50 150 -9 63 -19 116 -22 119 -2 3 -10 -1 -17 -8 -9 -10
-9 -15 3 -24 11 -8 20 -45 28 -111 13 -103 28 -136 63 -136 27 0 33 39 22 133
-6 45 -9 83 -8 85 2 2 9 -14 15 -35 29 -88 72 -171 95 -181 56 -25 58 49 5
165 -17 37 -28 68 -26 70 2 2 24 -34 50 -80 44 -82 69 -104 96 -87 22 14 3 78
-49 169 -47 82 -71 141 -57 141 4 0 25 -9 47 -21 25 -12 55 -19 77 -17 32 3
37 6 37 28 0 20 -11 31 -53 53 -33 18 -66 47 -91 80 -45 61 -71 85 -127 120
l-40 25 -37 148 c-20 82 -42 187 -47 234 -25 198 -61 365 -94 428 -8 16 -23
79 -31 138 -9 60 -27 140 -39 178 -19 56 -22 76 -14 110 6 22 8 86 6 141 -4
83 -9 111 -32 160 -46 101 -89 136 -291 235 -99 48 -194 101 -212 117 -30 26
-32 33 -36 114 -6 101 9 168 40 180 23 8 43 78 43 149 0 33 -3 40 -20 40 -21
0 -21 7 -3 73 2 9 -3 43 -12 75 -13 46 -28 68 -75 114 -77 75 -155 100 -245
79z m163 -30 c59 -30 100 -69 124 -115 35 -68 38 -100 18 -184 -10 -42 -21
-113 -25 -157 -4 -44 -13 -97 -20 -118 -7 -21 -11 -46 -8 -56 2 -9 -5 -34 -18
-55 -12 -20 -19 -39 -17 -42 3 -2 11 9 18 26 7 16 15 30 19 30 13 0 10 -63 -4
-91 -19 -35 -19 -53 -1 -20 l14 25 23 -45 c13 -24 34 -69 46 -99 12 -30 22
-49 22 -42 1 7 -10 39 -23 72 l-25 60 42 -26 c23 -14 75 -42 116 -62 l75 -36
-40 -18 c-26 -12 -60 -17 -102 -16 l-63 1 -52 79 c-29 43 -54 73 -56 67 -2 -6
1 -14 6 -18 5 -3 29 -34 52 -69 40 -59 41 -63 20 -60 -24 3 -33 15 -58 81 -8
20 -18 37 -23 37 -4 0 -8 -27 -8 -59 0 -54 -2 -60 -22 -64 -13 -2 41 -5 120
-6 125 -1 150 2 192 20 41 18 52 19 72 8 23 -13 22 -13 -17 -25 -22 -7 -49
-13 -59 -13 -11 -1 -16 -4 -13 -8 4 -3 36 2 72 12 l65 17 44 -26 c124 -72 185
-233 161 -422 -7 -59 -7 -59 -23 -34 -9 14 -40 50 -69 81 -31 32 -53 65 -53
78 0 66 -99 172 -219 235 -40 21 -74 36 -76 34 -2 -2 30 -21 71 -42 121 -62
214 -160 214 -227 0 -21 -1 -21 -35 6 -39 29 -69 30 -71 2 -1 -12 -1 -13 3 -2
6 21 23 19 23 -2 0 -15 2 -16 10 -3 8 13 14 10 35 -15 48 -58 99 -149 127
-229 15 -45 28 -73 28 -64 0 28 -48 147 -81 201 -16 27 -27 52 -24 56 4 3 29
-18 56 -48 60 -67 101 -168 124 -302 9 -52 20 -114 24 -138 5 -26 5 -55 0 -69
-5 -13 -9 -31 -8 -40 0 -9 6 1 13 23 l13 40 11 -27 c27 -65 71 -290 87 -443 4
-33 20 -110 36 -172 33 -128 36 -161 8 -88 -17 45 -19 37 -3 -22 5 -17 2 -23
-9 -23 -11 0 -22 19 -33 55 -10 30 -20 53 -22 50 -2 -2 3 -25 12 -51 9 -26 16
-48 16 -49 0 -1 -6 -2 -12 -2 -7 0 -20 -3 -28 -7 -17 -7 -20 0 -86 183 -36 98
-41 142 -9 81 10 -19 40 -84 66 -145 27 -60 49 -104 49 -97 0 17 -96 230 -123
272 -13 19 -34 61 -46 93 -32 78 -37 67 -7 -14 22 -59 47 -151 43 -156 -1 -1
-24 24 -50 55 -42 50 -135 219 -151 277 -5 16 1 25 23 38 16 9 31 17 33 17 3
0 19 -34 38 -75 18 -42 34 -74 37 -72 2 3 -12 39 -32 82 -33 73 -34 79 -19 97
10 10 21 18 26 18 15 0 108 -153 114 -187 3 -18 10 -33 14 -33 5 0 6 -10 4
-22 -4 -19 -3 -20 4 -5 6 15 15 2 40 -60 18 -43 45 -116 61 -163 16 -47 30
-80 30 -73 2 24 -73 222 -112 298 -41 79 -42 82 -42 185 0 58 -1 93 -3 78 -4
-36 -23 -35 -65 1 l-33 29 -19 -30 c-20 -30 -100 -98 -116 -98 -4 0 -11 16
-15 36 -6 33 -4 38 50 85 32 29 56 59 56 70 0 28 -26 77 -69 129 -21 25 -46
67 -56 93 -19 50 -35 69 -35 43 0 -9 4 -16 8 -16 14 0 42 -93 42 -138 0 -37 6
-48 46 -89 l46 -45 -21 -21 c-26 -26 -35 -18 -60 53 -18 50 -20 52 -20 23 -1
-18 3 -33 7 -33 4 0 14 -16 21 -36 11 -31 11 -38 -3 -52 -21 -22 -30 -9 -29
41 0 23 -2 33 -5 22 -3 -13 -15 14 -32 73 -27 89 -28 95 -13 138 8 25 12 48 9
51 -3 4 -6 1 -6 -6 0 -11 -68 -192 -75 -200 -2 -1 -8 0 -14 3 -6 4 2 29 20 62
16 31 29 66 29 78 -1 11 -8 -2 -18 -29 -32 -92 -92 -151 -145 -143 -18 2 -22
10 -25 48 -3 57 6 71 54 81 l39 8 -36 -2 c-48 -2 -69 17 -71 62 -1 36 -1 36
-5 4 -2 -18 2 -42 11 -55 10 -16 12 -28 6 -38 -16 -25 -12 -107 5 -114 14 -5
14 -9 -1 -31 -9 -14 -14 -28 -11 -31 3 -3 8 4 12 15 3 12 25 31 48 42 23 12
49 28 58 35 14 13 18 12 28 0 10 -12 10 -27 1 -70 -13 -66 -61 -116 -110 -116
-27 0 -30 3 -31 33 -2 31 -2 32 -6 3 -3 -16 0 -33 5 -38 7 -7 4 -21 -9 -42
-26 -42 -24 -82 5 -111 20 -20 22 -26 10 -36 -8 -6 -14 -17 -14 -23 0 -6 5 -3
11 7 5 9 27 26 47 36 20 10 46 29 57 42 l20 24 -25 -21 c-24 -21 -63 -44 -74
-44 -14 0 -46 46 -46 66 0 45 23 75 77 100 29 14 53 30 53 35 0 5 3 9 8 9 4 0
8 -80 10 -178 l3 -177 -45 -64 c-44 -62 -159 -202 -163 -198 -1 1 7 34 18 72
10 38 19 76 18 85 0 8 -11 -25 -25 -75 -40 -147 -107 -264 -222 -387 -45 -49
-80 -61 -102 -35 -6 6 -53 87 -105 179 -87 153 -102 190 -119 288 -2 14 -2 1
0 -29 3 -62 4 -62 -66 44 -29 44 -66 96 -82 116 -20 26 -28 48 -28 75 0 43 17
154 24 161 3 3 20 -9 38 -26 18 -17 39 -31 45 -31 31 0 48 -53 54 -164 l5
-111 2 105 c2 86 -1 110 -16 135 -17 28 -17 30 0 47 23 23 24 95 2 119 -15 17
-15 19 0 34 25 26 22 113 -6 142 -18 19 -19 23 -5 23 9 0 19 4 22 10 4 6 -2 7
-16 2 -34 -13 -67 -3 -100 31 l-30 30 22 23 c12 13 34 25 48 25 l26 2 -25 4
c-26 5 -66 36 -81 65 -8 15 -5 16 24 11 23 -3 51 2 87 18 51 22 53 22 66 4 8
-10 14 -14 14 -9 0 6 -5 15 -10 20 -16 16 25 47 73 55 34 5 26 7 -41 8 -51 1
-94 7 -111 16 -57 29 -107 111 -151 248 -12 37 -25 67 -29 67 -4 0 -16 -9 -26
-20 -25 -28 -30 -18 -10 20 42 81 141 160 256 205 52 21 80 25 166 25 93 0
102 -2 96 -17 -3 -10 3 -7 15 8 l22 27 -32 71 c-17 39 -33 70 -35 68 -2 -2 10
-34 27 -71 16 -38 30 -70 30 -72 0 -2 -69 -4 -152 -5 -84 -1 -142 -4 -129 -8
23 -6 22 -8 -15 -19 -101 -30 -226 -140 -271 -238 -13 -30 -28 -54 -32 -54 -4
0 -26 -16 -49 -35 l-41 -36 -10 33 c-5 18 -10 25 -10 16 -1 -9 3 -27 8 -40 7
-18 3 -35 -15 -68 l-23 -45 -1 131 c0 219 39 303 177 381 58 32 67 34 91 23
26 -12 26 -12 -43 -46 -104 -51 -197 -153 -194 -211 0 -12 3 -10 8 7 25 80 92
150 186 195 63 30 80 32 160 21 46 -6 45 -5 -12 8 -33 8 -74 21 -90 29 l-28
15 25 10 c105 41 136 56 204 96 43 25 76 43 74 39 -2 -5 -16 -32 -31 -62 -16
-29 -26 -62 -24 -72 9 -32 -14 -39 -78 -24 -67 15 -87 12 -28 -4 57 -17 154
-25 161 -15 4 5 21 19 39 31 29 21 32 21 36 5 3 -9 5 10 5 43 0 56 -14 142
-17 102 -1 -22 -49 -93 -85 -126 -22 -21 -26 -22 -26 -7 0 38 83 172 100 161
5 -3 10 5 12 17 3 15 9 4 18 -35 9 -37 16 -53 22 -45 6 10 8 10 8 -1 0 -8 2
-12 5 -9 3 3 -8 35 -25 72 -16 38 -30 79 -30 93 0 25 1 25 19 9 26 -23 79
-125 90 -172 7 -28 9 -32 10 -14 0 14 -10 49 -24 79 -14 30 -23 56 -21 58 2 3
15 -1 27 -8 27 -14 121 -18 163 -6 25 7 28 6 22 -10 -4 -10 -9 -31 -12 -48 -3
-20 0 -15 10 14 8 24 34 63 57 87 24 24 40 46 37 50 -4 3 -11 -3 -17 -14 -15
-28 -68 -59 -123 -71 -95 -22 -206 26 -243 105 -10 21 -24 88 -31 149 -7 62
-20 140 -29 174 -12 49 -13 70 -5 104 16 60 52 111 106 148 90 62 180 72 262
30z m-371 -329 c6 -4 15 -32 18 -62 3 -30 8 -65 11 -77 6 -29 -21 -31 -36 -3
-14 26 -26 150 -14 150 5 0 14 -4 21 -8z m553 -22 c0 -76 -33 -160 -55 -139
-9 9 16 153 27 161 22 13 28 9 28 -22z m-470 -500 c0 -43 -25 -76 -72 -95 -22
-9 -42 -14 -43 -13 -2 2 19 30 46 63 27 33 49 63 49 67 0 5 5 8 10 8 6 0 10
-14 10 -30z m375 -69 c5 -17 4 -22 -6 -19 -8 3 -15 18 -17 34 -4 33 11 24 23
-15z m24 -47 c2 -2 -8 -4 -22 -4 -18 0 -27 5 -27 15 0 13 4 14 23 4 12 -6 24
-13 26 -15z m-780 -395 c5 -57 9 -93 10 -79 1 14 6 34 10 45 7 17 11 13 28
-26 22 -49 74 -113 107 -131 11 -7 41 -15 66 -18 l45 -6 -55 -32 c-69 -40
-115 -50 -149 -31 -25 14 -26 21 -32 114 l-5 100 -1 -135 c-1 -74 2 -124 6
-111 l7 24 18 -29 c10 -16 27 -36 38 -44 18 -15 18 -16 -6 -39 -21 -20 -28
-22 -41 -11 -8 7 -15 25 -15 40 0 16 -5 30 -11 32 -7 2 -14 47 -19 113 l-7
110 -1 -83 -2 -83 -70 -101 c-38 -56 -70 -109 -70 -117 0 -27 29 -60 72 -82
l40 -20 -7 -47 c-4 -26 -9 -51 -12 -55 -8 -12 -51 32 -80 81 -14 23 -27 42
-30 42 -2 0 -1 -4 2 -10 3 -5 -5 -25 -19 -42 -24 -33 -89 -158 -120 -232 -32
-78 -14 -48 49 79 35 72 71 139 79 150 15 18 17 18 33 2 15 -15 13 -24 -40
-136 -31 -66 -57 -122 -57 -125 0 -2 -29 -48 -65 -101 -36 -54 -65 -102 -65
-108 0 -14 3 -10 45 61 20 35 39 61 42 58 3 -2 -18 -64 -46 -137 -29 -72 -50
-133 -48 -135 2 -2 16 29 32 68 120 311 210 518 225 518 3 0 18 -13 33 -28
l27 -28 -19 -56 c-26 -77 -44 -107 -85 -152 -56 -58 -114 -148 -163 -252 -27
-58 -49 -92 -55 -88 -6 4 -8 2 -4 -4 3 -6 20 -13 36 -17 21 -5 30 -12 30 -27
0 -15 -4 -18 -17 -13 -55 24 -91 34 -113 34 -14 -1 -3 -6 25 -13 74 -18 96
-33 90 -59 -2 -12 -9 -57 -15 -101 -5 -43 -13 -83 -17 -89 -4 -7 -10 -74 -13
-149 -6 -130 -17 -175 -37 -154 -5 4 -10 48 -13 98 -3 51 -10 93 -15 95 -7 2
-16 -38 -23 -102 -12 -106 -33 -170 -55 -162 -14 4 -16 133 -4 217 11 76 -5
56 -47 -56 -48 -129 -74 -176 -94 -172 -31 6 -24 53 24 172 33 84 44 120 36
128 -8 8 -25 -18 -60 -93 -49 -103 -90 -157 -111 -144 -21 12 -10 54 43 166
30 63 58 127 62 143 l7 29 -30 -22 c-39 -29 -104 -39 -122 -17 -17 20 -8 32
27 39 30 6 74 47 125 117 18 25 57 60 87 78 30 18 59 41 64 52 7 16 19 20 65
20 31 0 50 4 44 8 -9 6 -10 17 -3 41 6 22 6 39 -1 50 -8 12 -9 11 -3 -8 4 -15
2 -21 -4 -17 -10 6 -26 -39 -18 -52 3 -4 -4 -9 -15 -9 -10 -1 -19 2 -19 6 0 4
18 54 39 112 41 109 62 180 38 124 -8 -16 -31 -78 -53 -137 -21 -60 -44 -108
-50 -108 -7 0 2 49 22 128 18 71 37 179 43 247 12 134 47 288 85 371 25 55 45
63 47 21 1 -19 2 -19 6 -3 3 10 0 23 -6 29 -16 16 -14 62 9 172 28 136 91 276
141 316 21 17 39 29 39 26 0 -3 -16 -38 -35 -78 -50 -106 -75 -215 -74 -318 1
-47 4 -97 8 -111 4 -14 5 22 3 80 -6 133 17 233 85 370 25 52 45 99 44 103 -1
5 3 6 7 3 5 -3 17 3 27 14 11 12 22 17 27 12 5 -5 13 -56 17 -113z m7 -336 c9
-44 10 -43 -10 -108 -12 -43 -14 -46 -16 -20 l-1 30 -13 -37 c-18 -52 -44 -88
-61 -88 -27 0 -27 22 2 53 47 51 63 84 62 124 l-1 38 -8 -42 c-5 -23 -14 -52
-21 -65 -17 -34 -61 -78 -71 -72 -19 12 -5 45 52 125 33 46 60 87 60 91 0 5 4
8 9 8 5 0 12 -17 17 -37z m1183 -104 c23 -34 41 -70 41 -80 0 -18 -1 -19 -25
-3 -34 22 -65 75 -65 113 0 17 2 31 4 31 2 0 23 -28 45 -61z m-1110 -11 c11
-17 11 -22 -1 -29 -21 -14 -33 -5 -36 29 -4 36 14 36 37 0z m55 -43 c59 -25
76 -48 76 -104 0 -61 -17 -79 -59 -61 -41 16 -68 48 -86 100 -15 44 -15 46 6
63 26 20 19 20 63 2z m-171 -79 c-6 -10 -13 -12 -23 -6 -12 7 -11 14 6 45 l19
36 3 -30 c2 -17 0 -37 -5 -45z m1352 -56 c10 -11 26 -22 36 -25 15 -5 19 -16
19 -57 l0 -51 -39 60 c-21 33 -44 64 -50 67 -12 8 -6 26 8 26 4 0 16 -9 26
-20z m-1207 -11 c15 -11 43 -30 62 -42 37 -24 49 -62 36 -113 -10 -37 -54 -32
-96 11 -32 33 -35 41 -35 100 0 36 2 65 3 65 2 0 16 -9 30 -21z m1052 -112 c1
-32 102 -218 147 -270 55 -62 91 -130 100 -184 3 -18 9 -30 13 -28 11 7 33
-51 25 -64 -12 -21 -35 -11 -50 22 -15 31 -15 26 0 -23 13 -44 -11 -8 -30 45
-17 48 -59 131 -139 277 -21 38 -35 72 -32 76 3 5 -6 35 -18 68 -34 85 -40
108 -27 100 6 -4 11 -13 11 -19z m-1353 -269 c-22 -46 -57 -126 -78 -178 -30
-75 -42 -94 -56 -92 -10 2 -21 7 -26 11 -16 16 167 340 194 341 3 0 -12 -37
-34 -82z m260 8 c-2 -6 -7 -22 -11 -36 -5 -21 -4 -20 8 4 l13 29 13 -24 c7
-13 26 -40 42 -59 20 -26 33 -59 44 -118 9 -45 19 -80 21 -78 3 3 0 28 -6 57
-6 28 -9 54 -7 56 2 3 23 -27 46 -65 39 -66 41 -73 34 -123 -12 -93 -20 -101
-35 -35 -7 33 -14 55 -16 49 -8 -22 39 -178 74 -247 20 -39 53 -116 74 -171
21 -55 39 -94 39 -87 0 7 -16 54 -36 105 -28 74 -33 96 -25 115 6 13 11 28 11
35 -1 7 -7 -1 -14 -18 l-13 -30 -21 42 -22 42 25 37 25 36 10 -27 c5 -14 10
-35 10 -46 0 -10 4 -19 8 -19 8 0 52 -82 65 -120 5 -13 6 -13 6 1 1 8 -15 46
-34 85 -19 38 -49 108 -66 157 -18 48 -33 86 -35 84 -2 -2 3 -25 12 -51 17
-49 9 -91 -21 -116 -22 -18 -41 58 -26 101 6 17 11 44 11 60 0 58 33 22 111
-121 58 -106 80 -157 86 -199 11 -77 7 -351 -6 -436 -7 -38 -13 -178 -15 -310
-3 -238 -5 -260 -32 -343 -8 -23 -14 -59 -14 -78 0 -36 -60 -144 -80 -144 -24
0 -10 87 25 150 19 36 35 70 35 75 0 6 -18 -23 -41 -64 -33 -61 -39 -82 -37
-120 2 -37 7 -46 21 -45 11 1 17 -6 18 -20 0 -13 5 -6 13 19 7 22 20 53 28 70
l16 30 16 -55 c20 -73 30 -220 21 -317 l-7 -78 -25 30 c-36 45 -64 103 -73
154 -8 45 -8 45 -7 -16 1 -34 5 -59 9 -57 4 3 12 -6 19 -18 6 -13 27 -42 45
-65 34 -42 42 -78 27 -131 -5 -22 -8 -20 -34 25 -16 26 -29 44 -29 39 0 -5 14
-31 30 -58 28 -44 30 -56 30 -139 0 -54 -4 -88 -9 -84 -10 6 -8 -24 11 -132
11 -67 7 -83 -19 -79 -11 2 -27 31 -46 85 -16 45 -31 80 -34 78 -2 -2 11 -43
28 -91 18 -47 29 -90 25 -93 -4 -4 -11 -1 -16 7 -8 13 -10 12 -10 -2 0 -19
-54 -52 -73 -45 -6 2 -17 23 -23 48 l-12 44 2 -48 c2 -67 23 -70 121 -19 69
36 76 38 85 22 14 -26 31 -275 24 -343 -8 -68 -29 -90 -75 -77 -16 5 -31 5
-34 0 -6 -10 -156 -7 -174 4 -7 4 -16 19 -22 33 -8 20 -3 35 28 84 42 68 56
135 37 171 -15 25 -18 74 -6 81 11 8 6 116 -9 191 -7 36 -16 61 -19 55 -8 -12
-70 195 -108 356 -28 124 -34 270 -18 479 8 105 11 116 22 95 7 -13 13 -19 14
-13 0 5 -7 19 -15 30 -8 11 -14 41 -15 71 0 29 -4 74 -9 100 -5 26 -12 64 -15
83 -5 34 -5 34 11 15 l16 -20 -8 20 c-4 11 -11 36 -16 55 -4 19 -22 90 -39
157 -47 186 -88 400 -82 428 2 14 -1 32 -8 40 -9 11 -10 48 -5 147 9 181 36
330 84 472 23 66 39 121 37 123 -2 3 -14 -26 -26 -64 -22 -65 -43 -107 -35
-67 2 10 9 51 16 89 6 39 18 87 27 108 12 31 17 35 29 26 7 -7 12 -17 10 -23z
m918 -58 c4 -24 5 -63 3 -88 l-3 -45 -17 65 c-9 36 -17 55 -17 43 -1 -13 12
-62 28 -110 34 -103 68 -290 76 -424 l6 -94 -30 63 c-17 35 -42 77 -55 93 -45
53 -56 115 -56 305 0 129 3 176 13 186 7 7 16 21 20 31 11 30 26 19 32 -25z
m-75 -221 c1 -124 4 -162 20 -207 11 -30 19 -63 20 -72 0 -11 5 -15 14 -12 11
4 26 -19 55 -80 39 -81 41 -89 41 -179 0 -125 -11 -184 -135 -737 -5 -22 -4
-22 4 -5 6 13 8 -37 4 -145 -4 -123 -1 -197 11 -290 20 -155 15 -228 -30 -429
-54 -238 -94 -440 -96 -485 l-1 -41 -7 45 -7 45 -1 -52 c-2 -40 -6 -53 -19
-56 -10 -2 -8 -3 5 -2 23 2 23 0 21 -69 -3 -77 6 -102 60 -170 33 -41 37 -61
20 -86 -8 -12 -12 -12 -16 -2 -4 10 -8 10 -19 1 -11 -9 -18 -9 -29 1 -10 9
-15 9 -15 1 0 -6 -7 -11 -15 -11 -8 0 -15 6 -15 13 0 8 -3 8 -8 1 -4 -5 -35
-11 -69 -12 -54 -1 -67 3 -93 24 l-30 26 0 140 c0 77 5 148 10 159 15 27 69
25 114 -6 47 -32 56 -32 18 0 -17 14 -35 25 -42 25 -13 0 -14 -1 52 180 31 85
47 120 44 95 l-5 -40 14 40 c7 22 14 52 14 67 1 15 12 62 26 105 14 43 25 83
24 88 0 11 -27 -62 -120 -330 -34 -99 -66 -184 -70 -189 -22 -25 -19 18 15
195 20 105 34 194 31 197 -3 3 -5 -6 -6 -19 l-1 -24 -8 25 c-6 19 -8 8 -10
-40 -1 -69 -36 -196 -40 -150 -2 19 -5 15 -10 -15 -5 -28 -8 -8 -9 71 -1 82 3
123 16 160 l18 49 6 -40 7 -40 0 45 c1 25 6 65 11 90 12 51 13 151 2 111 -7
-28 -77 -88 -88 -77 -14 13 -15 286 -3 374 l12 84 21 -34 c11 -18 31 -58 44
-88 12 -30 23 -48 23 -40 0 19 -44 113 -70 150 -11 15 -20 43 -20 62 0 18 -11
77 -25 130 -20 83 -24 123 -26 270 -3 295 -4 328 -10 310 -10 -27 -21 74 -14
121 4 27 3 37 -3 29 -20 -29 -29 199 -13 334 8 68 11 74 77 157 38 47 70 82
72 78 1 -4 -4 -29 -12 -56 -9 -27 -13 -51 -11 -53 2 -2 10 17 17 43 l14 47 19
-41 c10 -23 24 -46 32 -52 14 -12 12 -25 -14 -97 -14 -39 -16 -42 -28 -25 -6
10 -20 40 -30 67 l-19 48 -23 -52 c-13 -29 -22 -55 -20 -57 2 -2 12 15 22 38
l19 40 27 -55 28 -55 -35 -96 c-19 -53 -34 -101 -33 -108 0 -7 13 24 28 68 16
44 42 112 59 150 34 79 52 152 33 141 -12 -8 -61 85 -61 114 0 8 16 42 35 75
l34 60 1 -50 c1 -54 17 -145 19 -108 0 12 10 45 21 73 11 28 20 56 19 63 0 7
-10 -13 -22 -43 l-22 -55 -3 73 c-3 71 -2 73 35 116 21 24 39 43 40 42 2 -2
-4 -26 -13 -55 -8 -29 -13 -55 -11 -57 3 -3 13 26 23 63 18 69 59 137 75 127
5 -3 9 -74 9 -157z m-410 -389 c0 -73 -15 -93 -23 -31 -3 26 -9 56 -12 66 -6
13 -2 17 14 17 19 0 21 -6 21 -52z m1210 -42 c0 -12 -5 -7 -19 24 -11 24 -11
24 3 6 9 -11 16 -24 16 -30z m-1035 -1681 c-3 -25 -18 -71 -33 -103 l-26 -57
-12 65 -12 65 41 37 c23 20 44 37 46 38 2 0 0 -20 -4 -45z m112 -237 c-3 -8
-6 -5 -6 6 -1 11 2 17 5 13 3 -3 4 -12 1 -19z m-146 -228 c-9 -48 -20 -80 -27
-80 -11 0 1 56 31 148 12 35 10 3 -4 -68z"/>
<path d="M1541 4949 c-6 -18 -11 -37 -10 -43 0 -6 7 7 15 28 8 22 12 41 10 43
-2 2 -9 -10 -15 -28z"/>
<path d="M1473 4875 c0 -22 2 -30 4 -17 2 12 2 30 0 40 -3 9 -5 -1 -4 -23z"/>
<path d="M1480 4792 c-47 -98 -59 -127 -42 -103 9 13 13 13 27 1 13 -11 16
-26 13 -68 -3 -29 -1 -47 3 -40 12 18 11 96 -1 103 -24 15 -6 25 48 27 44 1
48 2 17 5 -92 8 -90 4 -49 84 19 39 34 74 32 78 -2 4 -23 -35 -48 -87z"/>
<path d="M1255 4860 c3 -14 8 -42 11 -62 l6 -37 -52 1 c-28 0 -54 -3 -57 -6
-4 -3 21 -6 55 -6 61 0 62 0 61 28 0 15 -7 45 -15 67 -7 22 -11 29 -9 15z"/>
<path d="M917 4799 c7 -7 15 -10 18 -7 3 3 -2 9 -12 12 -14 6 -15 5 -6 -5z"/>
<path d="M1488 4733 c7 -3 16 -2 19 1 4 3 -2 6 -13 5 -11 0 -14 -3 -6 -6z"/>
<path d="M1670 4716 c24 -8 46 -13 49 -11 8 9 -5 14 -49 20 l-45 5 45 -14z"/>
<path d="M1340 4715 c0 -5 5 -17 10 -25 5 -8 10 -10 10 -5 0 6 -5 17 -10 25
-5 8 -10 11 -10 5z"/>
<path d="M1753 4713 c15 -2 37 -2 50 0 12 2 0 4 -28 4 -27 0 -38 -2 -22 -4z"/>
<path d="M1304 4630 c2 -19 11 -51 20 -70 16 -35 14 -23 -11 60 -12 40 -13 41
-9 10z"/>
<path d="M1441 4495 c-12 -37 -21 -75 -20 -84 0 -9 11 20 24 64 13 44 22 82
20 83 -2 2 -13 -26 -24 -63z"/>
<path d="M1341 4504 c0 -11 3 -14 6 -6 3 7 2 16 -1 19 -3 4 -6 -2 -5 -13z"/>
<path d="M613 4450 c0 -25 2 -35 4 -22 2 12 2 32 0 45 -2 12 -4 2 -4 -23z"/>
<path d="M1350 4378 c-5 -100 -7 -108 -36 -145 -18 -22 -49 -45 -75 -55 -24
-9 -38 -17 -31 -17 28 -2 79 28 109 62 38 43 45 75 41 182 l-3 80 -5 -107z"/>
<path d="M1923 4375 l-11 -40 -2 35 c-2 32 -3 32 -10 -13 -5 -27 -5 -59 0 -70
8 -20 9 -19 9 7 1 16 8 37 17 47 9 10 14 29 12 46 -3 27 -4 26 -15 -12z"/>
<path d="M1412 4332 c-2 -77 14 -112 70 -152 22 -17 35 -30 27 -30 -8 -1 9
-13 36 -27 62 -32 56 -24 71 -80 7 -27 13 -39 13 -27 2 48 -21 85 -68 110 -26
14 -35 22 -21 19 61 -14 92 -14 41 0 -67 19 -116 49 -139 83 -10 15 -20 56
-23 96 l-6 71 -1 -63z"/>
<path d="M1009 4324 c-13 -16 -12 -16 9 -3 18 11 26 12 43 1 18 -11 20 -11 17
0 -7 20 -53 21 -69 2z"/>
<path d="M1690 4321 c-20 -39 22 -82 60 -61 11 6 20 15 20 21 0 6 -7 3 -16 -5
-8 -9 -19 -16 -24 -16 -10 0 -40 29 -40 39 0 13 24 31 42 31 9 0 22 -8 27 -17
6 -10 11 -13 11 -7 1 34 -63 46 -80 15z"/>
<path d="M1922 4270 c0 -25 3 -70 8 -100 6 -47 7 -49 8 -15 0 22 -4 67 -8 100
-6 55 -7 56 -8 15z"/>
<path d="M1067 4280 c-20 -24 -31 -25 -51 -4 -9 8 -16 11 -16 5 0 -6 9 -15 20
-21 23 -12 54 0 64 25 7 20 4 19 -17 -5z"/>
<path d="M1876 4275 c-9 -26 -7 -32 5 -12 6 10 9 21 6 23 -2 3 -7 -2 -11 -11z"/>
<path d="M1892 4235 c0 -16 2 -22 5 -12 2 9 2 23 0 30 -3 6 -5 -1 -5 -18z"/>
<path d="M1836 4204 c-16 -20 -47 -45 -70 -55 -22 -10 -35 -19 -28 -19 30 0
102 54 123 93 15 26 7 20 -25 -19z"/>
<path d="M1883 4155 c0 -27 2 -38 4 -22 2 15 2 37 0 50 -2 12 -4 0 -4 -28z"/>
<path d="M1298 4163 c7 -3 16 -2 19 1 4 3 -2 6 -13 5 -11 0 -14 -3 -6 -6z"/>
<path d="M1418 4163 c7 -3 16 -2 19 1 4 3 -2 6 -13 5 -11 0 -14 -3 -6 -6z"/>
<path d="M1248 4153 c6 -2 18 -2 25 0 6 3 1 5 -13 5 -14 0 -19 -2 -12 -5z"/>
<path d="M1330 4085 l0 -75 -80 -40 c-44 -22 -97 -44 -118 -49 -28 -7 -31 -9
-12 -10 14 -1 69 20 123 46 l97 46 0 79 c0 43 -2 78 -5 78 -3 0 -5 -34 -5 -75z"/>
<path d="M1458 4153 c6 -2 18 -2 25 0 6 3 1 5 -13 5 -14 0 -19 -2 -12 -5z"/>
<path d="M1152 4120 c-32 -20 -57 -62 -49 -84 2 -6 7 4 11 21 6 24 19 40 49
58 23 14 38 25 32 25 -5 0 -25 -9 -43 -20z"/>
<path d="M1659 4123 c18 -4 22 -10 18 -30 -3 -17 -1 -21 6 -14 18 18 47 13 79
-14 16 -14 39 -25 51 -24 18 1 17 2 -7 9 -16 5 -37 18 -48 29 -10 12 -30 21
-43 21 -29 0 -34 16 -7 23 9 3 -3 5 -28 4 -25 0 -34 -2 -21 -4z"/>
<path d="M1870 4085 c0 -9 -7 -18 -15 -21 -8 -4 -13 -9 -10 -13 2 -5 -11 -24
-29 -44 -19 -21 -30 -37 -26 -37 5 0 23 18 41 41 24 30 34 37 40 27 6 -8 9 0
9 25 0 20 -2 37 -5 37 -3 0 -5 -7 -5 -15z"/>
<path d="M2142 4075 c0 -16 2 -22 5 -12 2 9 2 23 0 30 -3 6 -5 -1 -5 -18z"/>
<path d="M1077 4018 c-4 -15 -16 -30 -27 -33 -18 -6 -18 -8 -5 -21 8 -9 16
-30 16 -47 2 -30 2 -30 6 -5 2 15 0 35 -5 45 -6 13 -4 23 10 36 17 16 18 15
20 -25 1 -41 2 -41 5 -8 2 20 0 47 -5 60 l-9 24 -6 -26z"/>
<path d="M2153 3960 c0 -47 2 -66 4 -42 2 23 2 61 0 85 -2 23 -4 4 -4 -43z"/>
<path d="M1390 4011 c0 -14 163 -91 206 -98 31 -5 34 -3 33 18 -1 17 -3 19 -6
7 -2 -10 -11 -18 -19 -18 -22 0 -151 56 -185 81 -16 11 -29 16 -29 10z"/>
<path d="M1210 3924 c-84 -38 -100 -58 -100 -120 0 -57 8 -65 63 -63 29 2 28
2 -8 8 l-40 6 -3 51 c-3 48 -1 54 28 74 16 12 56 32 88 45 31 13 50 24 42 24
-8 0 -40 -11 -70 -25z"/>
<path d="M1328 3865 l3 -83 -63 -16 c-45 -11 -51 -15 -21 -11 23 3 53 9 67 15
25 9 26 13 26 89 0 44 -3 82 -7 84 -5 3 -7 -32 -5 -78z"/>
<path d="M1390 3939 c0 -5 5 -7 10 -4 6 3 10 8 10 11 0 2 -4 4 -10 4 -5 0 -10
-5 -10 -11z"/>
<path d="M1479 3930 c24 -11 46 -20 50 -20 12 1 -64 39 -79 39 -8 0 5 -8 29
-19z"/>
<path d="M1554 3897 c47 -29 57 -47 54 -95 -3 -46 -4 -47 -38 -50 -19 -1 -67
6 -107 16 -39 10 -70 15 -67 11 6 -10 135 -39 171 -39 40 0 53 17 53 68 0 36
-5 49 -31 73 -17 16 -36 29 -43 28 -6 0 -2 -6 8 -12z"/>
<path d="M2142 3845 c0 -16 2 -22 5 -12 2 9 2 23 0 30 -3 6 -5 -1 -5 -18z"/>
<path d="M1392 3820 c0 -14 2 -19 5 -12 2 6 2 18 0 25 -3 6 -5 1 -5 -13z"/>
<path d="M2131 3794 c0 -11 3 -14 6 -6 3 7 2 16 -1 19 -3 4 -6 -2 -5 -13z"/>
<path d="M1265 3740 c-26 -8 -24 -8 15 -7 l45 2 5 -100 c4 -74 1 -106 -9 -123
-11 -18 -11 -25 -1 -37 19 -23 66 -19 84 7 11 15 31 24 63 29 l48 6 -40 2
c-22 0 -47 -3 -55 -8 -10 -7 -18 -4 -28 10 -7 10 -22 19 -33 19 -17 0 -19 8
-19 93 0 116 -6 125 -75 107z m120 -240 c0 -18 -6 -26 -23 -28 -24 -4 -38 18
-28 44 3 9 15 14 28 12 17 -2 23 -10 23 -28z"/>
<path d="M1400 3740 c-8 -5 -12 -11 -10 -14 3 -2 14 2 24 10 22 15 10 19 -14
4z"/>
<path d="M1440 3737 c3 -3 43 -11 90 -17 47 -6 89 -17 93 -23 6 -8 7 -7 5 3
-3 8 -19 17 -36 21 -49 10 -157 21 -152 16z"/>
<path d="M1178 3723 c12 -2 30 -2 40 0 9 3 -1 5 -23 4 -22 0 -30 -2 -17 -4z"/>
<path d="M1101 3706 c-8 -9 -11 -43 -9 -92 3 -67 6 -79 21 -80 13 -2 13 -1 2
3 -13 4 -15 19 -13 86 3 77 4 82 28 88 22 6 23 7 4 8 -12 1 -27 -5 -33 -13z"/>
<path d="M1392 3580 c0 -14 2 -19 5 -12 2 6 2 18 0 25 -3 6 -5 1 -5 -13z"/>
<path d="M1632 3580 c0 -14 2 -19 5 -12 2 6 2 18 0 25 -3 6 -5 1 -5 -13z"/>
<path d="M1399 3537 c4 -4 48 -6 97 -5 l89 3 -97 5 c-53 3 -94 1 -89 -3z"/>
<path d="M1610 3540 c-13 -8 -12 -10 3 -10 9 0 17 5 17 10 0 12 -1 12 -20 0z"/>
<path d="M1183 3533 c26 -2 68 -2 95 0 26 2 4 3 -48 3 -52 0 -74 -1 -47 -3z"/>
<path d="M1170 3514 c59 -8 140 -8 140 -1 0 4 -37 6 -82 6 -46 -1 -72 -3 -58
-5z"/>
<path d="M1109 3493 c-13 -17 -13 -17 6 -3 11 8 22 16 24 17 2 2 0 3 -6 3 -6
0 -17 -8 -24 -17z"/>
<path d="M1560 3503 c14 -2 31 -12 38 -21 6 -9 12 -11 12 -6 0 18 -24 34 -49
33 l-26 -2 25 -4z"/>
<path d="M1113 3435 c0 -22 2 -30 4 -17 2 12 2 30 0 40 -3 9 -5 -1 -4 -23z"/>
<path d="M1612 3440 c0 -14 2 -19 5 -12 2 6 2 18 0 25 -3 6 -5 1 -5 -13z"/>
<path d="M2251 3440 c0 -8 4 -24 9 -35 5 -13 9 -14 9 -5 0 8 -4 24 -9 35 -5
13 -9 14 -9 5z"/>
<path d="M1662 3410 c0 -19 2 -27 5 -17 2 9 2 25 0 35 -3 9 -5 1 -5 -18z"/>
<path d="M1602 3385 c0 -16 2 -22 5 -12 2 9 2 23 0 30 -3 6 -5 -1 -5 -18z"/>
<path d="M1121 3375 c-1 -27 32 -192 36 -180 1 6 -6 53 -16 105 -11 52 -20 86
-20 75z"/>
<path d="M2271 3376 c-2 -15 53 -190 56 -180 1 5 -10 50 -26 99 -16 50 -30 86
-30 81z"/>
<path d="M1645 3325 c-3 -26 -4 -49 -2 -51 3 -3 8 16 12 41 3 26 4 49 2 51 -3
3 -8 -16 -12 -41z"/>
<path d="M1573 3277 c-12 -39 -20 -73 -18 -75 2 -2 14 28 26 67 11 40 19 74
17 76 -2 3 -14 -28 -25 -68z"/>
<path d="M1527 3148 c-9 -23 -15 -43 -13 -45 2 -2 11 15 20 38 9 23 15 43 13
45 -2 2 -11 -15 -20 -38z"/>
<path d="M1161 3164 c0 -11 3 -14 6 -6 3 7 2 16 -1 19 -3 4 -6 -2 -5 -13z"/>
<path d="M1176 3110 c15 -81 84 -255 109 -277 59 -52 100 -18 177 144 26 56
48 106 48 110 -1 4 -27 -45 -58 -109 -65 -131 -85 -158 -117 -158 -45 0 -66
32 -117 180 -27 80 -46 129 -42 110z"/>
<path d="M640 3852 c0 -7 4 -21 10 -31 11 -22 -17 -53 -73 -76 -33 -13 -37
-19 -36 -48 2 -30 2 -30 6 -4 3 19 15 33 41 47 20 11 47 28 59 39 22 18 22 21
8 53 -8 18 -14 27 -15 20z"/>
<path d="M553 3790 c0 -25 2 -35 4 -22 2 12 2 32 0 45 -2 12 -4 2 -4 -23z"/>
<path d="M532 3640 c0 -14 2 -19 5 -12 2 6 2 18 0 25 -3 6 -5 1 -5 -13z"/>
<path d="M512 3558 c-7 -28 -11 -53 -8 -55 2 -2 9 19 16 47 7 28 10 53 8 55
-3 3 -10 -18 -16 -47z"/>
<path d="M476 3434 c-10 -31 -16 -58 -14 -60 3 -2 12 21 22 52 10 31 16 58 14
60 -3 2 -12 -21 -22 -52z"/>
<path d="M481 3354 c-17 -48 -30 -88 -28 -91 2 -2 18 36 35 84 18 48 30 88 28
90 -2 2 -18 -35 -35 -83z"/>
<path d="M455 3219 c-6 -17 -9 -19 -16 -8 -5 8 -9 10 -9 4 0 -5 4 -16 8 -23 6
-9 12 -5 21 14 6 15 10 29 7 31 -2 2 -7 -5 -11 -18z"/>
<path d="M2040 3454 c0 -7 16 -34 35 -60 19 -27 48 -74 64 -104 17 -30 30 -51
31 -47 0 14 -48 104 -73 133 -13 16 -31 43 -40 59 -9 17 -16 25 -17 19z"/>
<path d="M2171 3225 c0 -5 6 -21 14 -35 8 -14 14 -20 14 -15 0 6 -6 21 -14 35
-8 14 -14 21 -14 15z"/>
<path d="M2200 3155 c0 -5 5 -17 10 -25 5 -8 10 -10 10 -5 0 6 -5 17 -10 25
-5 8 -10 11 -10 5z"/>
<path d="M953 3235 c0 -22 2 -30 4 -17 2 12 2 30 0 40 -3 9 -5 -1 -4 -23z"/>
<path d="M961 3145 c-1 -22 -3 -58 -6 -80 -3 -30 -3 -33 3 -11 6 26 10 17 30
-65 27 -114 94 -331 99 -325 3 2 -9 46 -26 98 -42 133 -82 293 -91 363 -6 50
-8 53 -9 20z"/>
<path d="M1041 3034 c0 -11 3 -14 6 -6 3 7 2 16 -1 19 -3 4 -6 -2 -5 -13z"/>
<path d="M941 3005 c0 -11 -16 -53 -35 -92 -23 -47 -30 -70 -20 -66 8 3 14 11
14 18 0 7 12 38 26 69 14 31 23 64 21 74 -4 14 -5 14 -6 -3z"/>
<path d="M852 2805 c-17 -37 -14 -45 4 -12 9 16 14 31 11 33 -2 2 -9 -7 -15
-21z"/>
<path d="M883 2780 c0 -30 2 -43 4 -27 2 15 2 39 0 55 -2 15 -4 2 -4 -28z"/>
<path d="M816 2709 c-9 -29 -16 -57 -15 -63 0 -6 9 16 20 49 10 32 16 61 14
63 -2 2 -11 -20 -19 -49z"/>
<path d="M874 2575 c0 -82 2 -115 3 -72 2 43 2 110 0 150 -1 40 -3 5 -3 -78z"/>
<path d="M785 2590 c-4 -23 -5 -43 -2 -46 2 -3 7 14 11 37 4 23 5 44 2 46 -2
2 -7 -14 -11 -37z"/>
<path d="M1273 2585 c0 -27 2 -38 4 -22 2 15 2 37 0 50 -2 12 -4 0 -4 -28z"/>
<path d="M1105 2600 c4 -14 20 -61 36 -104 27 -73 29 -92 31 -230 l2 -151 5
140 6 140 -38 110 c-21 60 -41 112 -44 115 -3 3 -2 -6 2 -20z"/>
<path d="M1283 2460 c0 -41 2 -58 4 -37 2 20 2 54 0 75 -2 20 -4 3 -4 -38z"/>
<path d="M1241 2470 c0 -8 4 -24 9 -35 5 -13 9 -14 9 -5 0 8 -4 24 -9 35 -5
13 -9 14 -9 5z"/>
<path d="M882 2375 c-1 -22 5 -69 13 -105 12 -56 13 -58 8 -15 -3 28 -9 75
-13 105 -6 48 -7 50 -8 15z"/>
<path d="M1261 2394 c0 -11 3 -14 6 -6 3 7 2 16 -1 19 -3 4 -6 -2 -5 -13z"/>
<path d="M1194 2355 c23 -67 80 -204 83 -201 4 4 -76 208 -84 216 -4 3 -3 -4
1 -15z"/>
<path d="M1276 2340 c9 -48 23 -73 23 -40 0 14 -6 36 -15 50 -15 25 -15 25 -8
-10z"/>
<path d="M911 2184 c0 -11 3 -14 6 -6 3 7 2 16 -1 19 -3 4 -6 -2 -5 -13z"/>
<path d="M926 2130 c7 -39 53 -160 61 -160 3 0 2 8 -2 18 -4 9 -21 53 -37 97
-15 44 -26 64 -22 45z"/>
<path d="M1163 2015 c0 -44 2 -61 4 -37 2 23 2 59 0 80 -2 20 -4 1 -4 -43z"/>
<path d="M1012 1918 c13 -24 26 -59 29 -78 l6 -35 2 31 c0 18 -10 52 -25 78
-32 58 -42 61 -12 4z"/>
<path d="M1152 1878 c-2 -67 21 -133 51 -150 18 -9 17 -6 -5 21 -27 32 -35 59
-41 141 -3 41 -4 39 -5 -12z"/>
<path d="M923 1818 c2 -7 19 -60 36 -117 18 -57 34 -101 37 -99 2 3 -2 23 -10
46 -12 34 -13 43 -2 49 18 11 56 74 56 93 0 8 -9 -3 -19 -25 -22 -49 -48 -74
-55 -54 -2 8 -12 38 -21 67 -9 28 -19 52 -22 52 -3 0 -3 -6 0 -12z"/>
<path d="M1270 1819 c0 -8 -8 -31 -19 -52 -10 -20 -15 -35 -11 -32 5 3 11 -5
13 -17 3 -18 5 -16 6 8 0 17 6 45 12 63 6 18 9 35 5 38 -3 4 -6 0 -6 -8z"/>
<path d="M1242 1670 c0 -14 2 -19 5 -12 2 6 2 18 0 25 -3 6 -5 1 -5 -13z"/>
<path d="M1231 1624 c0 -11 3 -14 6 -6 3 7 2 16 -1 19 -3 4 -6 -2 -5 -13z"/>
<path d="M1002 1580 c0 -8 6 -31 13 -50 7 -19 13 -28 13 -20 0 8 -6 31 -13 50
-7 19 -13 28 -13 20z"/>
<path d="M948 1460 c-3 -47 -9 -96 -12 -110 -4 -14 0 -9 8 10 l13 35 7 -50
c11 -76 16 -88 9 -20 -3 33 -8 96 -12 140 l-6 80 -7 -85z"/>
<path d="M1031 1474 c0 -11 3 -14 6 -6 3 7 2 16 -1 19 -3 4 -6 -2 -5 -13z"/>
<path d="M1042 1420 c0 -19 2 -27 5 -17 2 9 2 25 0 35 -3 9 -5 1 -5 -18z"/>
<path d="M1051 1360 c1 -14 9 -47 20 -75 20 -52 18 -34 -6 50 -8 29 -14 40
-14 25z"/>
<path d="M933 1250 c0 -30 2 -43 4 -27 2 15 2 39 0 55 -2 15 -4 2 -4 -28z"/>
<path d="M1173 1255 c0 -22 2 -30 4 -17 2 12 2 30 0 40 -3 9 -5 -1 -4 -23z"/>
<path d="M985 1200 c4 -67 57 -290 76 -319 9 -14 10 -13 4 4 -20 63 -67 258
-75 314 l-9 66 4 -65z"/>
<path d="M1091 1220 c0 -22 67 -338 68 -319 1 16 -55 305 -63 324 -3 6 -5 3
-5 -5z"/>
<path d="M943 1155 c0 -22 2 -30 4 -17 2 12 2 30 0 40 -3 9 -5 -1 -4 -23z"/>
<path d="M952 1085 c0 -16 2 -22 5 -12 2 9 2 23 0 30 -3 6 -5 -1 -5 -18z"/>
<path d="M1172 1040 c0 -19 3 -57 8 -85 6 -40 8 -44 10 -20 4 37 4 40 -8 95
-9 43 -10 43 -10 10z"/>
<path d="M962 1030 c0 -14 4 -38 8 -55 7 -27 8 -27 8 -5 0 14 -4 39 -8 55 -7
27 -8 27 -8 5z"/>
<path d="M981 930 c-2 -23 32 -186 36 -174 2 5 -5 50 -16 99 -10 50 -19 83
-20 75z"/>
<path d="M1192 880 c0 -14 2 -19 5 -12 2 6 2 18 0 25 -3 6 -5 1 -5 -13z"/>
<path d="M1161 865 c0 -11 6 -47 13 -80 8 -33 14 -51 15 -40 0 11 -6 47 -13
80 -8 33 -14 51 -15 40z"/>
<path d="M1073 850 c3 -8 20 -68 38 -133 24 -85 35 -113 40 -99 5 13 -6 58
-32 128 -22 60 -43 111 -46 114 -3 3 -3 -2 0 -10z"/>
<path d="M1202 830 c0 -14 2 -19 5 -12 2 6 2 18 0 25 -3 6 -5 1 -5 -13z"/>
<path d="M1211 790 c0 -8 6 -37 13 -65 8 -27 15 -43 15 -35 0 8 -6 38 -13 65
-8 28 -15 43 -15 35z"/>
<path d="M1022 725 c0 -11 4 -31 8 -45 6 -20 8 -21 8 -5 0 11 -4 31 -8 45 -6
20 -8 21 -8 5z"/>
<path d="M1192 700 c0 -14 2 -19 5 -12 2 6 2 18 0 25 -3 6 -5 1 -5 -13z"/>
<path d="M1202 650 c0 -14 2 -19 5 -12 2 6 2 18 0 25 -3 6 -5 1 -5 -13z"/>
<path d="M1212 600 c0 -14 4 -38 8 -55 7 -27 8 -27 8 -5 0 14 -4 39 -8 55 -7
27 -8 27 -8 5z"/>
<path d="M1151 580 c0 -8 4 -24 9 -35 5 -13 9 -14 9 -5 0 8 -4 24 -9 35 -5 13
-9 14 -9 5z"/>
<path d="M1171 510 c0 -8 4 -24 9 -35 5 -13 9 -14 9 -5 0 8 -4 24 -9 35 -5 13
-9 14 -9 5z"/>
<path d="M1232 490 c0 -14 2 -19 5 -12 2 6 2 18 0 25 -3 6 -5 1 -5 -13z"/>
<path d="M1726 3184 c-4 -14 -5 -28 -3 -31 3 -2 8 8 11 23 4 14 5 28 3 31 -3
2 -8 -8 -11 -23z"/>
<path d="M1690 3060 c-12 -45 -20 -84 -17 -86 2 -2 14 33 26 77 12 45 20 84
17 86 -2 2 -13 -33 -26 -77z"/>
<path d="M1662 2934 c-1 -17 -4 -47 -7 -65 l-5 -34 11 34 c5 18 8 47 6 65 l-4
31 -1 -31z"/>
<path d="M1582 2825 c0 -16 2 -22 5 -12 2 9 2 23 0 30 -3 6 -5 -1 -5 -18z"/>
<path d="M1632 2778 c-7 -28 -11 -53 -8 -55 2 -2 9 19 16 47 7 28 10 53 8 55
-3 3 -10 -18 -16 -47z"/>
<path d="M1804 2585 c0 -99 2 -138 3 -87 2 51 2 132 0 180 -1 48 -3 6 -3 -93z"/>
<path d="M1606 2684 c-4 -14 -5 -28 -3 -31 3 -2 8 8 11 23 4 14 5 28 3 31 -3
2 -8 -8 -11 -23z"/>
<path d="M1401 2613 c-6 -21 -11 -45 -10 -53 0 -8 7 7 14 35 8 27 12 51 10 53
-2 2 -8 -13 -14 -35z"/>
<path d="M1581 2599 c-7 -24 -33 -86 -57 -138 -43 -93 -57 -130 -29 -81 13 23
15 8 17 -145 l2 -170 6 190 6 190 38 88 c20 48 36 93 34 99 -2 6 -10 -9 -17
-33z"/>
<path d="M1383 2490 c0 -30 2 -43 4 -27 2 15 2 39 0 55 -2 15 -4 2 -4 -28z"/>
<path d="M1373 2385 c0 -27 2 -38 4 -22 2 15 2 37 0 50 -2 12 -4 0 -4 -28z"/>
<path d="M1436 2384 c-4 -14 -5 -28 -3 -31 3 -2 8 8 11 23 4 14 5 28 3 31 -3
2 -8 -8 -11 -23z"/>
<path d="M1793 2355 c0 -27 2 -38 4 -22 2 15 2 37 0 50 -2 12 -4 0 -4 -28z"/>
<path d="M1411 2294 c-7 -25 -10 -48 -8 -51 3 -2 10 17 16 43 7 25 10 48 8 51
-3 2 -10 -17 -16 -43z"/>
<path d="M1441 2232 c-12 -49 -21 -98 -20 -108 0 -11 11 28 25 85 13 58 22
106 20 109 -2 2 -13 -37 -25 -86z"/>
<path d="M1782 2260 c0 -19 2 -27 5 -17 2 9 2 25 0 35 -3 9 -5 1 -5 -18z"/>
<path d="M1391 2214 c0 -11 3 -14 6 -6 3 7 2 16 -1 19 -3 4 -6 -2 -5 -13z"/>
<path d="M1753 2123 c-12 -54 -25 -109 -28 -123 l-6 -25 11 25 c16 36 52 189
48 206 -2 8 -13 -29 -25 -83z"/>
<path d="M1405 2050 c-4 -28 -5 -53 -2 -56 2 -3 7 19 11 47 4 28 5 53 3 56 -3
2 -8 -19 -12 -47z"/>
<path d="M1521 2011 c0 -19 4 -71 10 -115 13 -91 -1 -193 -28 -203 -9 -3 -32
11 -61 38 -31 30 -41 36 -30 18 9 -14 18 -41 21 -60 l4 -34 1 34 2 34 25 -23
c34 -32 56 -19 73 46 13 48 11 96 -8 244 -5 41 -7 46 -9 21z"/>
<path d="M1686 1901 c-16 -40 -26 -82 -23 -98 l4 -28 2 31 c0 17 12 59 27 93
14 35 23 65 21 67 -2 2 -16 -27 -31 -65z"/>
<path d="M1675 1740 c3 -19 16 -45 29 -56 24 -22 24 -23 10 -75 -16 -64 -18
-92 -5 -70 12 19 23 -32 30 -149 l6 -95 8 64 c6 51 3 80 -14 144 l-22 79 22
80 c12 45 19 83 17 85 -2 3 -7 -9 -11 -26 -12 -58 -36 -52 -61 15 l-15 39 6
-35z"/>
<path d="M1445 1610 c8 -64 57 -163 94 -189 l31 -22 -1 43 c-2 43 -2 43 -8 8
l-6 -35 -22 22 c-31 31 -61 93 -78 161 -14 53 -15 54 -10 12z"/>
<path d="M1542 1518 c7 -15 15 -23 17 -17 2 6 -4 18 -13 27 -15 15 -15 15 -4
-10z"/>
<path d="M1681 1464 c-7 -30 -11 -57 -8 -60 2 -2 9 21 16 52 7 30 11 57 8 60
-2 2 -9 -21 -16 -52z"/>
<path d="M1573 1315 c0 -44 2 -61 4 -37 2 23 2 59 0 80 -2 20 -4 1 -4 -43z"/>
<path d="M1662 1370 c0 -14 2 -19 5 -12 2 6 2 18 0 25 -3 6 -5 1 -5 -13z"/>
<path d="M1764 1270 c0 -52 1 -74 3 -47 2 26 2 68 0 95 -2 26 -3 4 -3 -48z"/>
<path d="M1646 1304 c-4 -20 -5 -38 -3 -40 3 -3 8 11 11 32 4 20 5 38 3 40 -3
3 -8 -11 -11 -32z"/>
<path d="M1733 1210 c0 -30 2 -43 4 -27 2 15 2 39 0 55 -2 15 -4 2 -4 -28z"/>
<path d="M1632 1230 c0 -14 2 -19 5 -12 2 6 2 18 0 25 -3 6 -5 1 -5 -13z"/>
<path d="M1533 1150 c0 -47 2 -66 4 -42 2 23 2 61 0 85 -2 23 -4 4 -4 -43z"/>
<path d="M1563 1155 c0 -38 2 -53 4 -32 2 20 2 52 0 70 -2 17 -4 1 -4 -38z"/>
<path d="M1601 1089 c-12 -61 -20 -113 -18 -115 2 -3 14 46 26 107 12 61 20
113 18 115 -2 3 -14 -46 -26 -107z"/>
<path d="M1753 1090 c0 -41 2 -58 4 -37 2 20 2 54 0 75 -2 20 -4 3 -4 -38z"/>
<path d="M1722 1120 c0 -19 2 -27 5 -17 2 9 2 25 0 35 -3 9 -5 1 -5 -18z"/>
<path d="M1553 1030 c0 -30 2 -43 4 -27 2 15 2 39 0 55 -2 15 -4 2 -4 -28z"/>
<path d="M1706 1039 c-4 -23 -5 -44 -2 -46 2 -2 7 14 11 37 4 23 5 43 2 46 -2
3 -7 -14 -11 -37z"/>
<path d="M1741 980 c0 -19 -8 -57 -16 -85 -21 -67 -65 -287 -64 -316 0 -13 11
30 24 96 12 66 32 157 44 201 13 45 21 95 18 110 -4 27 -4 26 -6 -6z"/>
<path d="M1691 964 c0 -11 3 -14 6 -6 3 7 2 16 -1 19 -3 4 -6 -2 -5 -13z"/>
<path d="M1543 930 c0 -25 2 -35 4 -22 2 12 2 32 0 45 -2 12 -4 2 -4 -23z"/>
<path d="M1572 940 c0 -14 2 -19 5 -12 2 6 2 18 0 25 -3 6 -5 1 -5 -13z"/>
<path d="M1556 869 c-4 -23 -5 -44 -2 -46 2 -2 7 14 11 37 4 23 5 43 2 46 -2
3 -7 -14 -11 -37z"/>
<path d="M1532 850 c0 -19 2 -27 5 -17 2 9 2 25 0 35 -3 9 -5 1 -5 -18z"/>
<path d="M1493 745 c0 -22 2 -30 4 -17 2 12 2 30 0 40 -3 9 -5 -1 -4 -23z"/>
<path d="M1483 665 c0 -22 2 -30 4 -17 2 12 2 30 0 40 -3 9 -5 -1 -4 -23z"/>
<path d="M1596 604 c-4 -14 -5 -28 -3 -31 3 -2 8 8 11 23 4 14 5 28 3 31 -3 2
-8 -8 -11 -23z"/>
<path d="M1566 504 c-10 -31 -16 -58 -14 -60 3 -2 12 21 22 52 10 31 16 58 14
60 -3 2 -12 -21 -22 -52z"/>
<path d="M1652 520 c0 -19 2 -27 5 -17 2 9 2 25 0 35 -3 9 -5 1 -5 -18z"/>
<path d="M4490 5751 c-119 -39 -189 -137 -190 -265 0 -38 -3 -66 -6 -63 -13
12 -44 -14 -44 -37 0 -36 28 -121 49 -148 12 -14 29 -68 41 -126 11 -55 23
-107 26 -115 13 -35 -149 -131 -341 -201 -55 -20 -119 -46 -143 -58 -53 -26
-131 -110 -163 -175 -22 -44 -24 -60 -25 -203 0 -204 -32 -422 -79 -535 -44
-108 -61 -183 -80 -355 -20 -179 -26 -207 -67 -350 -30 -104 -37 -116 -63
-129 -59 -26 -108 -66 -145 -116 -23 -32 -53 -58 -78 -69 -49 -22 -58 -40 -32
-66 32 -32 90 -27 125 10 16 16 30 28 32 26 2 -2 -26 -63 -62 -136 -48 -96
-65 -141 -63 -163 4 -38 35 -48 60 -20 23 25 100 164 95 170 -3 2 -25 -34 -51
-80 -42 -77 -60 -97 -87 -97 -25 0 -3 71 61 194 74 140 79 178 16 117 -36 -35
-93 -42 -120 -15 -21 21 -14 29 45 59 27 14 49 29 49 34 0 20 91 108 134 129
l45 23 44 -25 c24 -14 50 -26 58 -26 8 0 -4 9 -26 19 -47 21 -67 42 -56 59 5
9 17 7 46 -8 22 -11 44 -20 51 -20 11 0 35 65 33 91 0 8 -7 -7 -15 -33 -17
-55 -33 -62 -35 -15 -2 30 -2 30 -6 4 -5 -31 -6 -31 -35 -16 -19 10 -19 12 15
36 32 23 35 29 41 94 4 38 5 73 1 78 -3 5 -1 12 5 16 5 3 10 23 9 43 l-1 37
-8 -32 c-7 -29 -35 -83 -44 -83 -5 0 18 83 27 97 4 6 5 18 2 26 -3 7 -1 43 5
78 6 35 12 92 15 126 6 86 28 177 70 282 19 50 40 123 46 163 37 250 47 290
82 327 19 20 47 55 61 79 16 25 34 42 45 42 17 0 18 -3 5 -37 -7 -21 -13 -45
-13 -53 0 -8 8 8 17 35 16 45 20 50 46 48 40 -3 56 -20 56 -62 0 -20 7 -56 15
-81 9 -25 13 -31 10 -15 -14 70 -17 134 -7 150 8 15 12 9 26 -33 22 -64 68
-134 101 -152 24 -13 25 -15 8 -22 -11 -5 3 -6 34 -4 51 5 53 4 69 -27 9 -18
40 -57 68 -87 54 -59 106 -148 126 -216 l12 -41 -46 -43 c-49 -45 -102 -141
-111 -200 -4 -23 1 -16 14 22 25 76 74 151 126 194 53 43 66 86 63 216 l-1 93
-7 -115 c-3 -63 -11 -124 -17 -135 l-12 -20 -7 20 c-33 96 -90 191 -150 249
-20 19 -47 61 -61 93 -13 32 -22 48 -20 36 5 -20 1 -23 -30 -23 -45 0 -113 63
-113 104 0 14 -5 25 -11 23 -15 -3 -41 73 -34 100 3 12 2 29 -1 37 -9 23 -76
20 -124 -4 -22 -11 -40 -17 -40 -12 0 15 72 93 94 102 15 6 16 9 5 9 -26 1
-95 -82 -127 -151 -16 -35 -47 -83 -69 -108 l-41 -45 -7 48 c-24 157 32 304
145 382 34 24 45 27 58 17 37 -27 137 -71 176 -78 l41 -7 -80 -39 c-44 -22
-68 -37 -53 -34 20 5 28 2 31 -11 4 -14 5 -13 6 4 1 17 15 30 51 48 27 14 54
25 60 25 5 0 11 -17 11 -37 l2 -38 6 39 c4 26 13 42 26 47 13 5 15 8 5 8 -8 1
-26 4 -39 8 -18 5 -22 3 -16 -6 5 -9 2 -12 -11 -8 -107 30 -134 40 -168 59
-22 13 -41 29 -44 36 -6 21 37 14 71 -12 37 -27 82 -51 117 -60 14 -4 -6 9
-45 28 -108 56 -109 59 -23 91 113 43 232 100 283 135 47 33 85 94 84 135 -1
12 -5 5 -11 -15 -10 -34 -11 -35 -19 -10 -4 14 -15 60 -22 103 -15 78 -15 78
7 75 14 -2 25 -15 34 -38 10 -29 12 -30 9 -7 -9 62 39 2 53 -66 6 -32 8 -36 9
-14 2 62 -57 137 -110 137 -19 0 -27 42 -36 210 -5 105 -4 119 16 161 27 56
72 104 125 132 31 16 59 21 116 21 85 0 134 -20 186 -76 56 -59 64 -86 64
-211 0 -164 -9 -237 -29 -237 -27 0 -79 -37 -95 -67 -8 -16 -17 -51 -20 -78
l-5 -50 12 55 c18 73 31 95 68 114 50 25 58 21 49 -21 -4 -21 -13 -66 -20
-100 -12 -59 -30 -77 -30 -31 0 12 -3 18 -7 15 -12 -13 21 -88 52 -115 41 -36
167 -101 288 -147 53 -20 97 -38 97 -40 0 -12 -113 -71 -171 -90 -50 -15 -65
-24 -51 -27 11 -3 22 -16 25 -29 4 -24 4 -24 6 -1 0 12 6 22 11 22 17 0 110
-49 110 -58 0 -4 15 -8 33 -9 17 -1 25 1 16 4 -31 8 -144 73 -129 73 22 0 93
21 88 25 -2 3 -28 -2 -58 -10 -52 -14 -83 -13 -44 1 56 20 90 37 130 64 47 31
69 37 79 20 3 -5 -18 -23 -47 -40 -29 -16 -48 -30 -42 -30 5 0 32 14 58 30 29
19 55 28 66 25 33 -10 118 -103 144 -157 31 -65 41 -135 31 -225 l-7 -68 -44
48 c-23 26 -57 78 -74 115 -34 71 -94 142 -120 141 -10 0 -8 -3 6 -9 23 -9 84
-75 84 -91 0 -6 -7 -8 -15 -5 -42 17 -46 15 -10 -6 l40 -23 -40 -5 c-30 -4
-35 -7 -19 -11 15 -5 25 -22 37 -60 8 -30 16 -47 16 -38 1 9 -6 35 -14 58 -13
39 -13 41 5 41 11 0 24 -9 30 -20 6 -10 33 -48 60 -84 41 -53 53 -80 66 -138
17 -75 21 -235 9 -331 -3 -29 -2 -47 2 -40 5 8 13 -13 21 -54 12 -65 12 -67
-12 -92 -14 -14 -43 -64 -64 -110 l-39 -83 -16 46 -16 46 36 27 c30 23 34 31
30 59 -4 23 -1 37 10 46 18 14 43 70 42 90 0 7 -7 -5 -15 -26 -15 -43 -42 -78
-54 -71 -4 2 -6 26 -5 52 2 46 2 46 -4 8 -5 -33 -10 -41 -31 -43 -32 -5 -50
-20 -49 -41 0 -11 3 -9 9 7 13 31 62 31 79 -2 16 -29 8 -59 -22 -75 -33 -18
-58 -57 -62 -99 -4 -36 -4 -36 6 6 6 23 14 42 19 42 5 0 17 -25 26 -55 l17
-54 17 47 c21 59 64 138 55 102 -14 -61 -15 -92 0 -42 16 57 40 107 54 117 6
3 15 -3 21 -12 9 -15 10 -14 4 7 -4 14 -13 48 -21 75 -8 28 -16 97 -19 155
l-4 105 14 -60 c8 -33 26 -87 41 -120 33 -75 65 -206 70 -288 2 -34 8 -93 15
-131 6 -38 9 -71 6 -74 -3 -2 -2 -12 3 -21 5 -9 11 -34 15 -56 7 -40 7 -40
-10 -16 -9 13 -20 38 -25 55 -7 29 -7 29 -8 -12 -1 -24 3 -41 8 -38 5 3 20
-11 34 -32 28 -41 45 -102 28 -102 -15 0 -49 53 -54 85 -2 17 -2 1 0 -35 2
-36 6 -84 10 -107 6 -47 -10 -59 -28 -20 l-10 22 5 -22 c2 -13 0 -25 -4 -28
-15 -9 -38 36 -64 125 -14 47 -25 77 -25 68 -1 -15 36 -137 54 -180 5 -12 0
-18 -17 -22 -13 -3 0 -3 28 -1 43 3 81 15 137 43 5 2 7 -6 5 -19 -2 -17 -17
-31 -48 -46 -24 -13 -37 -23 -29 -23 9 0 33 12 54 26 l39 26 49 -23 c44 -21
137 -109 137 -129 0 -5 23 -21 50 -36 28 -15 50 -32 50 -39 0 -21 -24 -35 -60
-35 -27 0 -43 8 -65 30 -25 26 -55 40 -55 25 0 -3 32 -68 70 -145 68 -135 80
-173 61 -184 -20 -13 -44 10 -82 80 -85 154 -108 154 -48 0 32 -81 40 -111 33
-127 -9 -20 -10 -20 -31 -2 -12 10 -41 65 -63 123 -63 159 -75 159 -56 2 10
-82 10 -107 0 -120 -23 -30 -38 3 -59 126 -11 64 -24 117 -30 117 -6 0 -11
-34 -13 -75 -3 -80 -15 -108 -38 -89 -10 8 -14 39 -14 113 0 55 -7 137 -15
181 -8 44 -14 94 -15 112 0 30 2 32 43 36 l42 4 -46 1 -45 2 -17 53 c-9 30
-17 63 -17 75 0 12 -4 22 -9 22 -5 0 -7 10 -5 23 3 17 3 18 -3 5 -6 -14 -14
-3 -32 45 -24 61 -89 193 -136 272 -13 22 -29 64 -36 93 -11 49 -11 55 9 82
12 16 22 32 22 37 0 4 -11 -8 -24 -25 l-23 -32 -7 46 c-3 26 -6 65 -6 87 0 45
-33 164 -61 219 -15 30 -19 59 -19 149 l0 112 23 -34 c12 -19 52 -56 87 -83
36 -27 71 -58 78 -70 12 -19 13 -19 6 -1 -4 11 -11 49 -14 85 l-7 65 -1 -52
c-1 -29 -5 -53 -9 -53 -17 0 -114 85 -137 121 -24 35 -26 44 -16 77 16 60 10
62 -9 2 -15 -48 -20 -55 -45 -58 -16 -2 -44 -1 -63 3 l-34 6 26 21 c44 34 111
135 76 114 -5 -4 -12 0 -14 6 -3 7 -6 -2 -6 -21 -1 -25 -11 -43 -41 -73 -35
-35 -44 -40 -79 -36 -35 3 -40 1 -50 -27 -6 -16 -35 -56 -65 -88 -47 -50 -126
-179 -126 -203 0 -5 18 25 40 65 22 41 62 98 89 125 27 28 56 66 66 84 13 27
21 33 38 28 12 -3 57 -9 99 -12 l77 -7 3 -116 3 -116 -38 -75 c-21 -42 -41
-97 -44 -125 -3 -27 -26 -101 -50 -163 l-43 -114 20 -25 c11 -14 20 -33 20
-41 0 -8 3 -13 6 -9 8 8 -5 44 -22 61 -12 13 -12 20 -1 48 l13 33 28 -28 c24
-24 27 -33 24 -89 -3 -59 -21 -89 -31 -51 -4 15 -5 14 -6 -4 -1 -27 -60 -60
-73 -41 -4 7 -8 21 -8 31 0 9 -5 17 -11 17 -7 0 -8 -7 -4 -17 18 -45 16 -49
-61 -98 -100 -63 -190 -148 -234 -220 -32 -54 -34 -64 -36 -154 l-2 -96 7 96
c6 80 12 104 36 145 45 77 110 140 176 170 33 15 54 31 49 34 -14 9 11 25 118
79 45 23 82 38 83 34 0 -5 2 -17 5 -28 2 -11 8 -77 14 -147 6 -71 17 -158 24
-195 23 -112 48 -284 42 -291 -3 -3 -6 3 -6 13 0 10 -2 16 -5 13 -3 -2 2 -37
11 -77 13 -66 13 -85 0 -185 -9 -61 -28 -174 -43 -251 l-28 -140 -6 70 -5 70
-2 -80 c-2 -123 -34 -475 -43 -475 -4 0 -11 9 -14 21 -4 11 -9 18 -12 16 -2
-3 2 -18 10 -34 9 -16 18 -62 22 -103 4 -41 14 -115 22 -165 12 -67 14 -123
10 -226 -4 -75 -9 -143 -12 -151 -8 -21 -69 -52 -88 -45 -33 12 -51 58 -50
121 l1 61 -12 -55 c-12 -58 -34 -96 -83 -142 -27 -26 -101 -63 -109 -55 -2 2
-9 62 -15 133 -9 101 -9 157 1 259 13 127 14 131 49 171 36 42 127 201 119
210 -3 2 -15 -19 -28 -46 -13 -28 -26 -46 -30 -40 -3 5 -11 -10 -18 -33 -7
-23 -22 -53 -32 -67 l-20 -25 0 31 c0 16 14 67 30 112 17 46 30 88 29 95 0 7
-11 -19 -25 -57 -13 -38 -27 -72 -30 -75 -4 -3 -5 57 -2 134 3 77 2 115 -1 85
-6 -44 -8 -49 -12 -25 -2 17 -2 -48 0 -142 2 -101 0 -173 -6 -173 -12 0 -42
135 -53 245 -5 50 -10 158 -10 241 0 85 -6 188 -14 235 -8 46 -20 119 -25 162
-13 93 -15 340 -3 381 l8 28 26 -34 c23 -30 24 -36 12 -53 -8 -10 -14 -23 -14
-29 0 -8 18 13 35 41 0 1 23 -4 50 -12 26 -8 68 -15 93 -15 38 0 43 -2 37 -17
-15 -39 -43 -161 -48 -213 -4 -34 -3 -45 2 -30 7 23 8 23 13 5 3 -11 3 -1 1
21 -4 41 14 140 37 198 14 38 25 27 55 -55 13 -35 24 -57 24 -49 0 8 -10 42
-24 74 -13 33 -23 62 -20 64 2 2 27 -9 56 -25 55 -29 108 -91 110 -127 1 -19
2 -18 9 4 4 14 8 34 8 45 1 17 0 18 -6 3 -6 -15 -11 -13 -35 17 -15 19 -50 48
-77 63 -28 16 -47 31 -44 34 3 3 -24 3 -59 1 -124 -10 -203 28 -241 117 -13
30 -15 32 -16 11 0 -21 -3 -23 -30 -17 -17 3 -30 1 -30 -4 0 -6 -16 -28 -36
-50 -20 -22 -32 -40 -26 -40 17 0 52 -98 62 -172 l9 -73 -4 73 c-3 50 -12 90
-29 127 l-25 55 28 31 28 30 6 -38 c14 -79 6 -298 -14 -423 -12 -72 -26 -239
-33 -395 -9 -178 -19 -296 -31 -345 -18 -79 -35 -112 -35 -70 0 17 -3 21 -9
12 -15 -24 -38 29 -111 253 -40 119 -73 215 -76 213 -2 -3 21 -78 51 -168 30
-91 55 -169 55 -175 -1 -5 -16 19 -35 55 -19 36 -34 60 -35 53 0 -6 -3 -20 -6
-30 -4 -14 -4 -15 4 -4 7 10 22 -10 58 -80 27 -52 65 -112 85 -134 36 -40 37
-40 47 -166 8 -113 1 -384 -12 -396 -9 -10 -93 36 -125 68 -39 38 -70 100 -72
144 -1 17 -5 -1 -9 -38 -10 -105 -53 -133 -120 -79 -21 17 -23 28 -28 173 -3
101 -1 173 7 209 7 30 16 100 21 155 6 66 16 113 30 140 11 21 20 45 20 52 0
32 36 1 62 -52 8 -16 13 -39 11 -50 -2 -16 -1 -16 7 3 8 18 5 31 -14 60 -13
21 -31 43 -40 51 -12 10 -15 24 -11 50 3 20 -4 5 -15 -33 -38 -126 -43 -125
-57 4 -6 63 -15 180 -20 260 -5 98 -9 130 -13 100 l-6 -45 -12 55 c-27 113
-63 347 -65 415 -2 111 10 251 33 370 12 61 28 177 35 258 7 82 15 150 17 151
1 2 40 -13 86 -32 l83 -35 -48 -48 c-26 -26 -62 -74 -80 -106 l-32 -57 -4 74
c-3 63 -4 60 -2 -15 1 -59 -5 -111 -17 -155 -20 -74 -22 -92 -8 -70 7 11 10 6
11 -20 0 -19 5 -44 10 -55 6 -15 7 -11 3 15 -25 137 27 294 129 385 28 26 54
42 63 38 7 -3 14 -3 14 0 0 3 -44 24 -97 47 -108 47 -118 53 -109 69 5 7 34
-3 84 -29 101 -51 161 -89 142 -90 -8 -1 10 -14 41 -30 56 -29 128 -99 155
-152 8 -16 17 -28 20 -28 2 0 -3 15 -12 33 -26 50 -142 158 -227 211 -42 26
-77 52 -77 56 0 4 7 24 15 43 8 20 15 42 14 49 0 7 -5 2 -10 -12 -10 -23 -15
-12 -61 108 -28 73 -52 131 -54 129 -4 -4 33 -112 47 -138 6 -11 4 -21 -5 -29
-8 -6 -20 -33 -27 -61 -7 -27 -18 -48 -23 -46 -6 2 -12 29 -14 61 -2 44 2 63
18 89 21 31 21 31 1 8 l-21 -23 0 81 c0 60 3 80 12 75 8 -5 9 -2 3 12 -4 10
-12 45 -16 76 -5 34 -26 93 -52 144 l-43 86 -23 -51 c-29 -69 -50 -160 -57
-255 l-6 -79 -23 29 c-13 16 -26 41 -29 56 -6 32 -48 48 -77 30 -38 -24 -76
60 -88 198 l-7 75 -7 -90 c-4 -49 -9 -103 -12 -120 -2 -16 2 -7 9 20 l13 50 8
-35 c9 -44 34 -93 51 -103 8 -5 11 -19 7 -40 -3 -24 0 -37 13 -47 16 -14 16
-13 4 7 -22 35 -3 78 34 78 18 0 32 -7 37 -18 5 -9 13 -25 19 -35 44 -77 42
-69 24 -130 -17 -55 -18 -56 -25 -27 -8 29 -8 29 -5 -5 3 -27 -6 -52 -39 -110
-23 -41 -60 -117 -81 -168 -21 -51 -40 -89 -42 -84 -1 4 13 61 32 125 25 85
32 124 26 140 -7 19 -9 16 -9 -16 -1 -21 -15 -83 -31 -139 -17 -56 -27 -110
-24 -121 4 -13 2 -17 -5 -13 -7 5 -11 -3 -11 -23 0 -51 -17 -81 -45 -81 -30 0
-30 -3 -5 60 11 28 20 56 19 63 0 7 -9 -13 -21 -43 -11 -30 -27 -63 -36 -72
-14 -17 -12 -18 27 -18 38 0 41 -2 31 -19 -7 -14 -23 -21 -53 -24 l-42 -4 43
-1 43 -2 -7 -62 c-3 -35 -10 -81 -15 -103 -5 -22 -9 -90 -9 -150 0 -111 -8
-139 -36 -128 -10 4 -14 26 -14 83 0 72 -10 105 -24 81 -4 -5 -13 -58 -22
-118 -18 -116 -33 -148 -59 -122 -13 13 -13 28 -2 117 8 56 10 107 6 114 -8
13 -17 -3 -79 -155 -29 -71 -58 -106 -74 -90 -13 13 -5 52 29 136 37 91 42
117 24 117 -6 0 -8 -7 -5 -15 3 -9 -10 -54 -29 -100 -38 -92 -43 -126 -19
-145 25 -21 57 22 103 135 42 105 47 101 31 -23 -11 -82 -2 -112 31 -112 26 0
34 24 54 145 9 55 18 102 21 104 2 2 4 -30 4 -71 0 -79 12 -104 44 -92 21 8
24 26 30 164 7 199 27 299 90 460 53 134 91 214 160 332 30 53 66 204 66 282
0 50 43 210 59 220 4 3 26 -29 47 -70 l39 -76 -1 -217 c-1 -244 -17 -459 -45
-606 -33 -167 -51 -353 -45 -439 8 -99 49 -340 75 -443 45 -174 63 -597 32
-703 -14 -45 -14 -244 0 -367 6 -53 22 -139 36 -192 68 -260 84 -353 87 -494
3 -143 -3 -167 -39 -167 -20 0 -37 -37 -30 -61 8 -25 48 -51 72 -48 10 2 29
-3 43 -11 15 -9 56 -14 104 -14 75 -1 80 0 100 27 19 26 21 40 18 140 -3 126
-5 140 -27 217 -28 93 -30 245 -6 420 31 230 35 337 18 482 -13 116 -13 132 4
198 25 103 39 250 39 423 0 109 6 183 20 262 25 131 38 450 22 508 -10 35 -9
37 14 37 27 0 27 0 8 -143 -6 -51 13 -277 32 -380 9 -47 19 -187 24 -327 6
-192 13 -267 30 -345 21 -96 22 -107 10 -250 -14 -160 -8 -270 26 -520 19
-143 14 -285 -14 -371 -29 -87 -38 -279 -16 -333 11 -28 24 -43 41 -47 36 -10
146 1 174 17 13 7 28 12 33 11 23 -7 57 11 71 38 19 36 12 55 -27 71 -37 15
-51 48 -36 90 6 18 8 60 5 102 -7 81 1 128 68 402 66 268 82 481 50 650 -9 44
-16 123 -17 175 -2 126 27 409 53 510 11 45 32 147 46 228 39 222 35 379 -17
642 -29 148 -45 364 -45 610 l0 225 38 74 c21 40 42 70 47 65 17 -19 60 -177
60 -224 0 -81 28 -201 61 -265 98 -186 132 -260 177 -383 55 -153 73 -255 79
-449 3 -93 8 -124 19 -134 11 -9 20 -10 32 -2 13 7 18 30 22 89 l5 79 18 -109
c24 -146 40 -172 80 -128 14 15 14 28 4 115 -7 53 -10 93 -6 89 4 -4 24 -48
44 -98 41 -103 75 -145 100 -124 23 19 19 47 -20 143 -19 48 -35 90 -35 94 0
5 19 -26 41 -67 51 -92 77 -122 104 -118 15 2 21 12 23 36 3 25 -13 64 -68
167 -39 74 -68 135 -64 135 4 0 20 -13 36 -30 21 -22 37 -30 64 -30 84 0 102
52 30 87 -26 13 -57 40 -77 67 -28 40 -88 87 -153 122 -37 20 -97 247 -121
459 -20 183 -34 248 -80 364 -22 57 -40 128 -50 193 -8 57 -20 136 -28 176
-10 53 -11 87 -5 125 27 144 -16 284 -115 373 -58 52 -70 58 -212 110 -211 77
-353 162 -340 203 3 10 14 62 24 114 11 56 27 108 40 125 25 35 53 139 45 164
-5 16 -16 22 -36 19 -5 0 -8 29 -8 67 -1 106 -55 199 -144 244 -44 23 -162 34
-206 19z m-186 -373 c9 -60 15 -138 11 -138 -18 0 -61 142 -50 161 13 20 34 8
39 -23z m568 -13 c-3 -40 -35 -125 -47 -125 -3 0 -3 28 0 63 9 96 14 109 33
105 13 -3 16 -12 14 -43z m-865 -895 c2 -8 -6 -26 -17 -39 -16 -19 -23 -21
-34 -11 -8 6 -36 15 -63 19 l-48 7 40 22 c47 25 118 26 122 2z m1466 -802
c-11 -13 -25 -32 -31 -43 -6 -11 -12 -15 -12 -8 0 12 48 73 58 73 3 0 -4 -10
-15 -22z m-425 -84 l3 -76 -26 19 c-17 12 -24 25 -20 39 5 22 34 94 38 94 1 0
3 -34 5 -76z m-854 -171 c18 -53 19 -63 7 -81 -12 -20 -71 12 -71 38 0 28 31
101 40 95 5 -3 15 -26 24 -52z m646 -177 c0 -2 -7 -7 -16 -10 -8 -3 -12 -2 -9
4 6 10 25 14 25 6z m-1304 -70 c-3 -13 -18 -35 -32 -49 -29 -29 -22 -38 8 -10
16 14 18 14 18 0 0 -16 -59 -71 -67 -63 -3 3 -2 13 2 23 5 10 9 23 9 28 5 39
22 84 40 106 19 24 21 24 24 6 2 -10 1 -29 -2 -41z m2126 -70 c7 4 10 4 6 -1
-4 -4 -3 -16 3 -27 6 -11 9 -22 6 -24 -8 -8 -67 47 -67 63 0 14 3 14 19 -1 12
-11 25 -15 33 -10z m-18 -45 c15 -16 15 -19 1 -31 -18 -15 -20 -14 -29 23 -7
31 4 35 28 8z m-1306 -2120 c17 -12 47 -28 67 -37 21 -8 34 -20 31 -27 -21
-50 -66 -202 -65 -220 0 -12 9 10 19 48 23 85 53 167 45 120 -3 -16 -8 -88
-11 -160 -5 -103 -2 -146 11 -205 29 -125 29 -121 -6 -175 l-32 -50 -13 45
c-7 25 -12 38 -13 30 -1 -8 3 -30 8 -48 12 -40 -6 -52 -45 -32 -23 13 -24 19
-25 109 -1 53 -5 110 -8 126 -4 17 -5 -21 -3 -82 3 -62 2 -113 -2 -113 -19 0
-59 122 -92 280 -20 95 -44 201 -54 235 -22 72 -45 184 -38 190 2 3 19 -31 38
-75 18 -45 34 -79 37 -77 2 2 -10 36 -27 75 -36 84 -36 86 -9 72 34 -19 66 -4
85 39 l17 40 27 -43 c15 -24 41 -53 58 -65z m605 24 c14 -4 35 -2 46 5 12 6
21 9 21 7 0 -2 -20 -51 -43 -108 -49 -116 -101 -268 -95 -274 2 -3 15 28 27
68 32 101 124 323 128 310 4 -12 -18 -116 -47 -223 -36 -130 -80 -365 -70
-368 13 -5 13 -77 -1 -125 -12 -45 5 -82 47 -97 33 -13 33 -54 -1 -76 -14 -9
-32 -13 -41 -10 -9 4 -25 -1 -34 -9 -14 -12 -37 -15 -106 -13 l-89 3 -13 39
c-9 29 -10 65 -5 134 l8 94 35 -54 c39 -59 64 -69 105 -42 28 18 85 108 85
134 0 8 -12 -10 -27 -40 -24 -52 -26 -53 -33 -30 -8 24 -8 24 -9 -6 -1 -35
-31 -67 -58 -62 -12 2 -18 12 -17 28 1 14 -1 17 -3 7 -7 -29 -19 -20 -51 41
-20 38 -28 62 -22 72 25 45 43 188 36 300 -3 63 -8 129 -12 145 -11 62 17 -5
42 -98 14 -51 22 -72 19 -47 -3 24 -17 76 -31 115 -14 38 -27 78 -30 87 -5 12
3 21 30 32 53 22 98 60 125 105 l25 40 17 -39 c12 -26 26 -41 42 -45z m-621
-738 c39 -29 70 -17 108 43 18 27 33 50 34 50 1 0 2 -13 7 -145 1 -38 -3 -82
-9 -97 -11 -28 -13 -28 -101 -28 -68 0 -92 4 -102 16 -8 10 -21 13 -36 9 -17
-4 -30 2 -48 19 -33 33 -32 43 11 68 42 25 58 57 44 94 -6 14 -10 51 -10 82
l0 57 38 -74 c20 -41 49 -83 64 -94z"/>
<path d="M4196 780 c3 -14 11 -32 16 -40 6 -10 7 -7 2 10 -3 14 -11 32 -16 40
-6 10 -7 7 -2 -10z"/>
<path d="M4226 700 c4 -14 20 -68 35 -120 15 -52 28 -88 28 -80 1 21 -48 191
-60 210 -7 11 -8 8 -3 -10z"/>
<path d="M4363 585 c0 -22 2 -30 4 -17 2 12 2 30 0 40 -3 9 -5 -1 -4 -23z"/>
<path d="M4353 470 c0 -36 2 -50 4 -32 2 17 2 47 0 65 -2 17 -4 3 -4 -33z"/>
<path d="M4363 360 c0 -25 2 -35 4 -22 2 12 2 32 0 45 -2 12 -4 2 -4 -23z"/>
<path d="M4773 570 c0 -25 2 -35 4 -22 2 12 2 32 0 45 -2 12 -4 2 -4 -23z"/>
<path d="M4855 540 c-4 -17 -5 -34 -2 -36 2 -3 7 10 11 27 8 42 0 50 -9 9z"/>
<path d="M4782 470 c0 -19 2 -27 5 -17 2 9 2 25 0 35 -3 9 -5 1 -5 -18z"/>
<path d="M4837 455 c-4 -22 -6 -56 -6 -75 1 -22 5 -11 10 30 10 72 6 108 -4
45z"/>
<path d="M4773 370 c0 -25 2 -35 4 -22 2 12 2 32 0 45 -2 12 -4 2 -4 -23z"/>
<path d="M4762 300 c0 -14 2 -19 5 -12 2 6 2 18 0 25 -3 6 -5 1 -5 -13z"/>
<path d="M4736 5158 c-3 -13 -5 -39 -5 -58 1 -27 3 -22 9 20 9 58 7 77 -4 38z"/>
<path d="M4402 5105 c0 -16 2 -22 5 -12 2 9 2 23 0 30 -3 6 -5 -1 -5 -18z"/>
<path d="M4452 5010 c0 -19 2 -27 5 -17 2 9 2 25 0 35 -3 9 -5 1 -5 -18z"/>
<path d="M4685 4981 c6 -45 75 -234 83 -226 2 2 -10 38 -27 79 -17 42 -38 101
-46 133 -13 52 -14 53 -10 14z"/>
<path d="M4436 4944 c-4 -14 -5 -28 -3 -31 3 -2 8 8 11 23 4 14 5 28 3 31 -3
2 -8 -8 -11 -23z"/>
<path d="M4391 4818 c-19 -46 -34 -106 -37 -137 l-3 -56 9 56 c5 30 23 91 40
134 17 42 29 79 27 81 -2 3 -19 -33 -36 -78z"/>
<path d="M4778 4620 c4 -164 10 -185 10 -40 0 63 -3 126 -7 140 -4 14 -5 -31
-3 -100z"/>
<path d="M4342 4590 c0 -14 2 -19 5 -12 2 6 2 18 0 25 -3 6 -5 1 -5 -13z"/>
<path d="M4973 4520 c0 -36 2 -50 4 -32 2 17 2 47 0 65 -2 17 -4 3 -4 -33z"/>
<path d="M4355 4493 c2 -42 15 -94 41 -158 20 -52 39 -93 41 -91 2 2 -12 44
-32 93 -20 50 -40 119 -45 154 l-9 64 4 -62z"/>
<path d="M4163 4490 c0 -30 2 -43 4 -27 2 15 2 39 0 55 -2 15 -4 2 -4 -28z"/>
<path d="M5103 4495 c0 -27 2 -38 4 -22 2 15 2 37 0 50 -2 12 -4 0 -4 -28z"/>
<path d="M4033 4480 c0 -30 2 -43 4 -27 2 15 2 39 0 55 -2 15 -4 2 -4 -28z"/>
<path d="M5129 4488 c-1 -7 -2 -29 -3 -48 -1 -19 -5 -46 -9 -60 -4 -14 1 -7
12 15 18 38 19 39 25 15 3 -14 7 -41 9 -60 3 -29 4 -28 5 11 2 34 -4 54 -19
73 -28 35 -19 54 28 59 l38 4 -42 1 c-28 1 -44 -2 -44 -10z"/>
<path d="M4771 4448 c0 -9 -23 -74 -51 -145 -27 -70 -50 -137 -49 -148 1 -13
4 -10 9 10 4 17 28 84 54 149 26 66 45 127 43 135 -4 13 -5 13 -6 -1z"/>
<path d="M4963 4415 c0 -22 2 -30 4 -17 2 12 2 30 0 40 -3 9 -5 -1 -4 -23z"/>
<path d="M5093 4405 c0 -22 2 -30 4 -17 2 12 2 30 0 40 -3 9 -5 -1 -4 -23z"/>
<path d="M4172 4400 c0 -19 2 -27 5 -17 2 9 2 25 0 35 -3 9 -5 1 -5 -18z"/>
<path d="M5185 4420 c-3 -6 1 -7 9 -4 18 7 21 14 7 14 -6 0 -13 -4 -16 -10z"/>
<path d="M4042 4390 c0 -19 2 -27 5 -17 2 9 2 25 0 35 -3 9 -5 1 -5 -18z"/>
<path d="M4952 4345 c0 -16 2 -22 5 -12 2 9 2 23 0 30 -3 6 -5 -1 -5 -18z"/>
<path d="M4182 4340 c0 -14 4 -36 8 -50 6 -20 8 -21 8 -5 0 11 -4 34 -8 50 -7
27 -8 27 -8 5z"/>
<path d="M3842 4295 c0 -16 2 -22 5 -12 2 9 2 23 0 30 -3 6 -5 -1 -5 -18z"/>
<path d="M4936 4279 c-8 -42 0 -50 9 -9 4 17 5 34 2 36 -2 3 -7 -10 -11 -27z"/>
<path d="M5292 4285 c0 -16 2 -22 5 -12 2 9 2 23 0 30 -3 6 -5 -1 -5 -18z"/>
<path d="M3833 4225 c0 -22 2 -30 4 -17 2 12 2 30 0 40 -3 9 -5 -1 -4 -23z"/>
<path d="M5303 4215 c0 -22 2 -30 4 -17 2 12 2 30 0 40 -3 9 -5 -1 -4 -23z"/>
<path d="M3986 4202 c-16 -30 -131 -142 -146 -142 -5 0 -11 28 -13 63 l-3 62
-2 -65 c-1 -42 -11 -86 -27 -125 -13 -33 -24 -73 -24 -90 1 -26 2 -25 9 10 17
85 38 119 102 165 34 25 74 62 89 84 l28 38 4 -108 3 -109 2 123 c1 67 0 122
-3 122 -2 0 -11 -13 -19 -28z"/>
<path d="M4447 4210 c3 -14 10 -41 14 -60 7 -34 7 -34 7 -5 1 17 -5 44 -13 60
-12 24 -14 25 -8 5z"/>
<path d="M4038 4193 c12 -2 32 -2 45 0 12 2 2 4 -23 4 -25 0 -35 -2 -22 -4z"/>
<path d="M4662 4020 c-1 -115 13 -190 39 -199 48 -16 137 -150 158 -237 7 -31
9 -34 10 -13 2 42 -74 182 -122 225 -23 21 -41 41 -41 44 1 3 5 16 8 30 l7 25
-14 -24 c-23 -39 -31 -9 -38 134 l-6 130 -1 -115z"/>
<path d="M5346 3970 c4 -13 10 -47 15 -75 l8 -50 -4 57 c-2 31 -9 65 -15 75
-9 15 -10 14 -4 -7z"/>
<path d="M3763 3830 c0 -25 2 -35 4 -22 2 12 2 32 0 45 -2 12 -4 2 -4 -23z"/>
<path d="M3772 3750 c0 -19 2 -27 5 -17 2 9 2 25 0 35 -3 9 -5 1 -5 -18z"/>
<path d="M3636 3675 c-10 -33 -31 -85 -46 -115 -23 -47 -26 -61 -19 -100 l7
-45 0 40 c-1 41 2 53 30 118 11 27 18 34 24 25 6 -9 8 -5 7 12 -8 103 40 65
74 -59 16 -60 17 -36 2 39 -3 14 11 -9 31 -50 33 -69 35 -78 24 -113 -6 -22
-10 -41 -8 -43 2 -2 17 36 32 83 26 79 30 85 42 68 8 -10 14 -14 14 -7 0 6
-12 24 -27 40 -16 15 -23 21 -16 14 8 -11 7 -25 -5 -60 l-15 -46 -37 80 c-20
43 -48 93 -62 109 -14 17 -27 39 -29 50 -3 12 -11 -3 -23 -40z m35 -2 c13 -16
12 -17 -3 -4 -17 13 -22 21 -14 21 2 0 10 -8 17 -17z m37 -58 c-3 -3 -9 2 -12
12 -6 14 -5 15 5 6 7 -7 10 -15 7 -18z"/>
<path d="M5501 3609 c-15 -42 -25 -107 -12 -89 7 11 11 -2 14 -50 2 -36 3 -24
2 25 -3 106 2 129 21 94 7 -13 13 -19 13 -14 0 6 -6 21 -14 35 l-13 25 -11
-26z"/>
<path d="M3636 3540 c-4 -25 -6 -63 -3 -85 3 -33 4 -29 6 20 2 44 5 55 11 40
l9 -20 -1 20 c0 11 -3 31 -7 45 -7 22 -9 20 -15 -20z"/>
<path d="M5546 3535 c4 -16 12 -33 18 -37 20 -13 19 1 -3 34 l-22 33 7 -30z"/>
<path d="M4252 3494 c-6 -32 -10 -59 -8 -61 6 -6 28 95 24 108 -2 6 -9 -15
-16 -47z"/>
<path d="M4872 3520 c0 -14 2 -19 5 -12 2 6 2 18 0 25 -3 6 -5 1 -5 -13z"/>
<path d="M5473 3465 c0 -22 2 -30 4 -17 2 12 2 30 0 40 -3 9 -5 -1 -4 -23z"/>
<path d="M3663 3450 c0 -25 2 -35 4 -22 2 12 2 32 0 45 -2 12 -4 2 -4 -23z"/>
<path d="M4881 3474 c0 -11 3 -14 6 -6 3 7 2 16 -1 19 -3 4 -6 -2 -5 -13z"/>
<path d="M5402 3460 c0 -19 2 -27 5 -17 2 9 2 25 0 35 -3 9 -5 1 -5 -18z"/>
<path d="M3732 3450 c0 -19 2 -27 5 -17 2 9 2 25 0 35 -3 9 -5 1 -5 -18z"/>
<path d="M5563 3445 c0 -22 2 -30 4 -17 2 12 2 30 0 40 -3 9 -5 -1 -4 -23z"/>
<path d="M4941 3429 c-6 -18 -9 -34 -7 -36 2 -2 9 10 15 28 6 18 9 34 7 36 -2
2 -9 -10 -15 -28z"/>
<path d="M4891 3440 c0 -8 4 -24 9 -35 5 -13 9 -14 9 -5 0 8 -4 24 -9 35 -5
13 -9 14 -9 5z"/>
<path d="M5361 3424 c-1 -5 10 -41 24 -80 14 -38 23 -58 20 -44 -2 14 -5 48
-6 75 -2 36 -3 42 -7 20 l-4 -30 -13 35 c-8 19 -14 30 -14 24z"/>
<path d="M3561 3392 c0 -13 -6 -33 -12 -45 -11 -20 -10 -21 6 -6 11 11 15 27
12 45 -3 23 -4 24 -6 6z"/>
<path d="M3620 3376 c0 -19 -9 -87 -20 -152 -11 -64 -18 -119 -16 -121 5 -6
35 162 43 241 3 36 3 66 -1 66 -3 0 -6 -15 -6 -34z"/>
<path d="M5463 3350 c0 -36 2 -50 4 -32 2 17 2 47 0 65 -2 17 -4 3 -4 -33z"/>
<path d="M5572 3360 c0 -25 2 -39 5 -32 2 6 10 9 15 6 7 -5 8 -2 3 5 -4 7 -11
25 -15 39 -7 23 -8 20 -8 -18z"/>
<path d="M3673 3355 c0 -22 2 -30 4 -17 2 12 2 30 0 40 -3 9 -5 -1 -4 -23z"/>
<path d="M5513 3350 c0 -25 2 -35 4 -22 2 12 2 32 0 45 -2 12 -4 2 -4 -23z"/>
<path d="M4947 3282 l-79 -37 41 -33 c88 -71 149 -203 152 -327 1 -54 3 -62 8
-35 l7 35 12 -47 c7 -26 10 -71 8 -100 -2 -29 -1 -38 1 -19 3 26 7 31 14 20
16 -26 10 8 -26 150 -43 163 -83 247 -148 308 -26 25 -47 46 -45 48 2 2 30 15
62 29 61 27 70 26 79 -9 3 -11 4 -3 3 17 0 21 -3 38 -6 37 -3 0 -40 -17 -83
-37z"/>
<path d="M3663 3260 c0 -25 2 -35 4 -22 2 12 2 32 0 45 -2 12 -4 2 -4 -23z"/>
<path d="M5522 3275 c0 -16 4 -43 8 -60 11 -42 11 -1 1 50 -7 34 -9 35 -9 10z"/>
<path d="M4101 3274 c0 -11 3 -14 6 -6 3 7 2 16 -1 19 -3 4 -6 -2 -5 -13z"/>
<path d="M5473 3245 c0 -22 2 -30 4 -17 2 12 2 30 0 40 -3 9 -5 -1 -4 -23z"/>
<path d="M5411 3265 c0 -5 8 -37 19 -70 11 -33 17 -44 13 -25 -6 38 -31 111
-32 95z"/>
<path d="M4092 3225 c0 -16 2 -22 5 -12 2 9 2 23 0 30 -3 6 -5 -1 -5 -18z"/>
<path d="M5042 3215 c0 -16 2 -22 5 -12 2 9 2 23 0 30 -3 6 -5 -1 -5 -18z"/>
<path d="M3652 3190 c0 -14 2 -19 5 -12 2 6 2 18 0 25 -3 6 -5 1 -5 -13z"/>
<path d="M5053 3115 c0 -38 2 -53 4 -32 2 20 2 52 0 70 -2 17 -4 1 -4 -38z"/>
<path d="M5541 3165 c0 -11 6 -42 13 -70 18 -65 19 -37 1 35 -7 30 -14 46 -14
35z"/>
<path d="M3641 3144 c0 -11 3 -14 6 -6 3 7 2 16 -1 19 -3 4 -6 -2 -5 -13z"/>
<path d="M2294 3004 c-19 -15 -19 -15 1 -6 11 5 27 12 35 15 13 5 13 6 -1 6
-8 1 -24 -6 -35 -15z"/>
<path d="M4531 3005 c1 -19 18 -51 18 -35 0 8 -4 22 -9 30 -5 8 -9 11 -9 5z"/>
<path d="M4553 2875 c0 -38 2 -53 4 -32 2 20 2 52 0 70 -2 17 -4 1 -4 -38z"/>
<path d="M4031 2799 c-6 -29 -9 -54 -6 -57 6 -6 12 13 19 66 9 58 0 53 -13 -9z"/>
<path d="M5042 2776 c-18 -48 -55 -91 -92 -106 -17 -7 -29 -15 -26 -17 7 -7
60 24 82 49 27 29 56 86 52 99 -2 6 -9 -6 -16 -25z"/>
<path d="M4541 2784 c0 -11 3 -14 6 -6 3 7 2 16 -1 19 -3 4 -6 -2 -5 -13z"/>
<path d="M4090 2763 c0 -22 62 -84 107 -107 l45 -22 -42 -19 c-23 -10 -59 -38
-80 -62 -24 -28 -40 -39 -43 -31 -4 9 -6 9 -6 -2 0 -8 4 -22 9 -30 9 -13 10
-13 10 0 0 27 56 85 110 114 28 15 53 26 56 24 2 -3 -5 -23 -16 -46 -24 -49
-50 -155 -49 -197 0 -16 7 3 14 44 16 85 40 158 63 184 10 11 31 17 66 18 44
2 41 3 -24 9 -104 10 -171 47 -208 115 -6 11 -12 15 -12 8z"/>
<path d="M4043 2705 c0 -22 2 -30 4 -17 2 12 2 30 0 40 -3 9 -5 -1 -4 -23z"/>
<path d="M4011 2714 c0 -11 3 -14 6 -6 3 7 2 16 -1 19 -3 4 -6 -2 -5 -13z"/>
<path d="M5082 2640 c0 -19 2 -27 5 -17 2 9 2 25 0 35 -3 9 -5 1 -5 -18z"/>
<path d="M4052 2630 c0 -19 2 -27 5 -17 2 9 2 25 0 35 -3 9 -5 1 -5 -18z"/>
<path d="M4410 2650 c-21 -7 -21 -8 -5 -9 11 0 27 4 35 9 18 11 5 11 -30 0z"/>
<path d="M4308 2527 c14 -57 21 -105 17 -127 -4 -24 -3 -30 4 -21 7 12 10 9
14 -10 2 -13 2 -4 0 21 -6 58 -43 219 -52 224 -4 3 4 -37 17 -87z"/>
<path d="M4615 2583 c-4 -10 -8 -56 -10 -103 l-4 -85 8 80 c4 44 11 90 15 103
9 26 1 30 -9 5z"/>
<path d="M5072 2575 c0 -16 2 -22 5 -12 2 9 2 23 0 30 -3 6 -5 -1 -5 -18z"/>
<path d="M4062 2565 c0 -16 2 -22 5 -12 2 9 2 23 0 30 -3 6 -5 -1 -5 -18z"/>
<path d="M4074 2330 c0 -80 2 -112 3 -72 2 39 2 105 0 145 -1 39 -3 7 -3 -73z"/>
<path d="M4937 2405 c3 -38 7 -72 9 -74 7 -8 2 84 -6 114 -5 18 -6 2 -3 -40z"/>
<path d="M5064 2350 c0 -58 1 -81 3 -52 2 28 2 76 0 105 -2 28 -3 5 -3 -53z"/>
<path d="M4516 2354 c-3 -26 -4 -49 -2 -52 3 -2 8 17 11 43 4 25 5 48 3 51 -3
2 -8 -17 -12 -42z"/>
<path d="M4611 2370 c0 -14 6 -47 13 -75 18 -64 19 -38 1 40 -7 33 -14 49 -14
35z"/>
<path d="M4314 2135 c0 -126 2 -177 3 -112 2 65 2 168 0 230 -1 62 -3 9 -3
-118z"/>
<path d="M4184 2255 c0 -49 1 -71 3 -48 2 23 2 64 0 90 -2 26 -3 8 -3 -42z"/>
<path d="M4782 2310 c0 -19 2 -27 5 -17 2 9 2 25 0 35 -3 9 -5 1 -5 -18z"/>
<path d="M4824 2145 c0 -110 2 -156 3 -103 2 53 2 143 0 200 -1 57 -3 13 -3
-97z"/>
<path d="M4352 2300 c0 -19 2 -27 5 -17 2 9 2 25 0 35 -3 9 -5 1 -5 -18z"/>
<path d="M4953 2255 c0 -38 2 -53 4 -32 2 20 2 52 0 70 -2 17 -4 1 -4 -38z"/>
<path d="M4496 2268 c-3 -13 -5 -36 -5 -53 1 -21 4 -15 10 20 8 52 6 72 -5 33z"/>
<path d="M4772 2240 c0 -19 2 -27 5 -17 2 9 2 25 0 35 -3 9 -5 1 -5 -18z"/>
<path d="M4362 2230 c0 -19 2 -27 5 -17 2 9 2 25 0 35 -3 9 -5 1 -5 -18z"/>
<path d="M4642 2215 c0 -16 3 -50 7 -75 6 -33 9 -37 9 -15 0 17 -3 50 -7 75
-6 33 -9 37 -9 15z"/>
<path d="M4763 2165 c0 -22 2 -30 4 -17 2 12 2 30 0 40 -3 9 -5 -1 -4 -23z"/>
<path d="M4373 2145 c0 -22 2 -30 4 -17 2 12 2 30 0 40 -3 9 -5 -1 -4 -23z"/>
<path d="M4483 2145 c0 -22 2 -30 4 -17 2 12 2 30 0 40 -3 9 -5 -1 -4 -23z"/>
<path d="M4943 2130 c0 -30 2 -43 4 -27 2 15 2 39 0 55 -2 15 -4 2 -4 -28z"/>
<path d="M4191 2114 c0 -21 4 -57 9 -79 6 -30 7 -21 3 35 -6 81 -13 107 -12
44z"/>
<path d="M4753 2080 c0 -25 2 -35 4 -22 2 12 2 32 0 45 -2 12 -4 2 -4 -23z"/>
<path d="M4383 2060 c0 -25 2 -35 4 -22 2 12 2 32 0 45 -2 12 -4 2 -4 -23z"/>
<path d="M4473 2065 c0 -22 2 -30 4 -17 2 12 2 30 0 40 -3 9 -5 -1 -4 -23z"/>
<path d="M4663 2055 c0 -22 2 -30 4 -17 2 12 2 30 0 40 -3 9 -5 -1 -4 -23z"/>
<path d="M4932 2040 c0 -19 2 -27 5 -17 2 9 2 25 0 35 -3 9 -5 1 -5 -18z"/>
<path d="M4462 1990 c0 -19 2 -27 5 -17 2 9 2 25 0 35 -3 9 -5 1 -5 -18z"/>
<path d="M4743 1980 c0 -25 2 -35 4 -22 2 12 2 32 0 45 -2 12 -4 2 -4 -23z"/>
<path d="M4393 1965 c0 -27 2 -38 4 -22 2 15 2 37 0 50 -2 12 -4 0 -4 -28z"/>
<path d="M4672 1985 c0 -16 3 -50 7 -75 6 -33 9 -37 9 -15 0 17 -3 50 -7 75
-6 33 -9 37 -9 15z"/>
<path d="M4912 1969 c-31 -80 -123 -361 -119 -365 2 -2 30 75 61 171 32 96 63
176 68 177 6 2 8 14 6 27 -3 21 -4 20 -16 -10z"/>
<path d="M4210 1978 c0 -9 5 -20 10 -23 13 -8 13 5 0 25 -8 13 -10 13 -10 -2z"/>
<path d="M4201 1925 c-1 -16 -4 -48 -6 -70 -4 -25 -2 -33 3 -21 6 15 13 6 36
-48 16 -37 30 -65 32 -63 3 2 -8 30 -23 63 -15 32 -30 84 -33 114 -4 31 -8 42
-9 25z"/>
<path d="M4453 1915 c0 -22 2 -30 4 -17 2 12 2 30 0 40 -3 9 -5 -1 -4 -23z"/>
<path d="M4931 1908 c0 -20 -4 -44 -8 -54 -4 -11 -2 -15 4 -11 6 4 15 -14 21
-46 10 -48 9 -54 -13 -77 -12 -14 -28 -36 -35 -49 l-12 -24 -13 23 c-11 20 -8
32 16 86 16 35 29 67 28 71 0 5 -16 -25 -34 -65 l-34 -73 19 -31 18 -31 21 41
c11 22 30 47 41 55 20 14 20 16 5 88 -8 41 -16 88 -18 104 -4 27 -4 26 -6 -7z"/>
<path d="M4733 1885 c0 -27 2 -38 4 -22 2 15 2 37 0 50 -2 12 -4 0 -4 -28z"/>
<path d="M4812 1881 c-1 -24 -9 -70 -18 -103 -8 -33 -13 -62 -11 -65 10 -9 38
136 34 173 l-4 39 -1 -44z"/>
<path d="M4403 1865 c0 -27 2 -38 4 -22 2 15 2 37 0 50 -2 12 -4 0 -4 -28z"/>
<path d="M4322 1855 c0 -22 6 -58 14 -80 9 -27 12 -30 8 -10 -4 17 -10 53 -14
80 -7 48 -8 49 -8 10z"/>
<path d="M4435 1800 c-9 -75 -9 -75 -16 -30 -4 25 -4 -9 -1 -75 5 -133 12
-166 12 -61 0 37 5 98 11 136 6 39 9 78 7 87 -3 10 -8 -16 -13 -57z"/>
<path d="M4693 1825 c0 -22 2 -30 4 -17 2 12 2 30 0 40 -3 9 -5 -1 -4 -23z"/>
<path d="M4351 1724 c-1 -5 10 -41 23 -80 14 -38 25 -64 25 -58 1 5 -10 41
-23 80 -14 38 -25 64 -25 58z"/>
<path d="M4897 1585 c3 -22 7 -42 9 -44 8 -9 2 45 -6 64 -7 14 -8 8 -3 -20z"/>
<path d="M4232 1570 c0 -14 2 -19 5 -12 2 6 2 18 0 25 -3 6 -5 1 -5 -13z"/>
<path d="M4401 1563 c0 -4 4 -17 9 -28 8 -19 9 -19 9 2 1 12 -3 25 -9 28 -5 3
-10 3 -9 -2z"/>
<path d="M4223 1490 c0 -30 2 -43 4 -27 2 15 2 39 0 55 -2 15 -4 2 -4 -28z"/>
<path d="M4914 1385 c0 -82 2 -115 3 -72 2 43 2 110 0 150 -1 40 -3 5 -3 -78z"/>
<path d="M4221 1294 c0 -32 4 -81 9 -109 5 -34 6 -16 3 55 -6 115 -14 149 -12
54z"/>
<path d="M4903 1190 c0 -25 2 -35 4 -22 2 12 2 32 0 45 -2 12 -4 2 -4 -23z"/>
</g>
</svg>
