<svg xmlns="http://www.w3.org/2000/svg" xmlns:xlink="http://www.w3.org/1999/xlink" version="1.1" id="Ebene_1" x="0px" y="0px" width="80px" height="45px" viewBox="0 0 90 45" style="enable-background:new 0 0 266 45;" xml:space="preserve">
<style type="text/css">
	.st0{fill:none;}
	.st1{fill:#ffffff;}
</style>

<path class="st0" d="M82.5,13.6c0.7,0,1.3-0.6,1.3-1.5c0-0.9-0.5-1.5-1.3-1.5s-1.4,0.6-1.4,1.5C81.1,12.9,81.7,13.6,82.5,13.6z   M81.9,11h0.7c0.5,0,0.7,0.2,0.7,0.6c0,0.3-0.2,0.5-0.5,0.5l0.5,0.9h-0.4l-0.5-0.8h-0.3V13c0,0-0.1,0-0.2,0V11z"/>








<path class="st0" d="M261.2,25.3c-1.2,0-2,0.9-2,2.1h3.9C263,26.3,262.3,25.3,261.2,25.3z"/>



<path class="st1" d="M82.1,12.2h0.3l0.5,0.8h0.4l-0.5-0.9c0.3,0,0.5-0.2,0.5-0.5c0-0.4-0.2-0.6-0.7-0.6h-0.7v2c0.1,0,0.2,0,0.2,0  V12.2z M82.1,11.3h0.4c0.2,0,0.4,0,0.4,0.3s-0.2,0.3-0.5,0.3H82L82.1,11.3z"/>
<circle class="st1" cx="8.4" cy="2.9" r="1.8"/>
<path class="st1" d="M82.5,13.8c0.9,0,1.7-0.7,1.7-1.8c0-1.1-0.8-1.8-1.7-1.8s-1.7,0.7-1.7,1.8C80.7,13,81.4,13.8,82.5,13.8z   M82.5,10.6c0.8,0,1.3,0.6,1.3,1.5c0,0.9-0.6,1.5-1.3,1.5c-0.8,0-1.4-0.7-1.4-1.5C81.1,11.2,81.7,10.6,82.5,10.6z"/>
<path class="st1" d="M68.4,17.1c-3.4,0-4-0.9-3.9-3.5c0-0.8,1.1-3.1,6.1-3.1c4.1,0,6.2,2.2,6.3,3.4h3.5C80.5,9.2,74.8,7,70.6,7  c-6.1,0-9.6,3.7-9.6,6.6c0,3.8,1.4,6.1,4.8,6.8h-5.6V7h-3.5v13.3H39.2V7h-3.5v13.3h-0.5V7h-3.5v3.9C29.5,8.5,26.4,7,22.9,7  c-6.8,0-12.3,5.8-12.3,12.9c0,0.2,0,0.3,0,0.5h-0.5V7.1H6.6v13.3H1v0.7h5.6v11.7h3.5V21.1h0.5v0.2c0.4,4.1,2.7,7.6,5.9,9.6  c1.9,1.2,4.1,1.8,6.3,1.8c2.3,0,4.5-0.7,6.3-1.8c0.9-0.6,1.7-1.3,2.5-2v3.8c-0.1,5.1-4,9.2-8.8,9.2s-8.7-4.1-8.8-9.2h-3.4  c0.1,7,5.6,12.7,12.3,12.7c6.7,0,12.2-5.7,12.3-12.7V21.1h0.5v0.2c0.4,4.1,2.7,7.6,5.9,9.6c1.9,1.2,4.1,1.8,6.3,1.8  c2.3,0,4.5-0.7,6.3-1.8c0.9-0.6,1.7-1.2,2.4-2v3.9h3.5V21.1h14.6c0.3,0.1,0.6,0.1,0.8,0.2c1.8,0.6,2.2,1.6,2.2,3.1  c0,3.3-2.9,4.8-7.3,4.8c-4.6,0-6.6-2.6-6.5-4.7h-3.7c-0.1,2.8,1.5,5,3.8,6.5c1.7,1.1,3.9,1.7,6.3,1.7c2.3,0,5.1-0.4,7.2-1.7  s3.6-3.3,3.6-6.6c0-1.2-0.2-2.2-0.6-3c0-0.1-0.1-0.2-0.1-0.2h5.9v-0.8h-6C78.3,17.6,73.9,17.1,68.4,17.1z M31.6,21.3  c-0.6,4.5-4.3,8-8.7,8c-4.4,0-8.1-3.5-8.7-8c0-0.1,0-0.2,0-0.2h17.5L31.6,21.3z M31.7,20.4H14.1c0-0.2,0-0.3,0-0.5  c0-5.2,3.9-9.4,8.8-9.4c4.9,0,8.8,4.2,8.8,9.4C31.7,20,31.7,20.2,31.7,20.4z M56.7,21.3c-0.6,4.5-4.3,8-8.7,8s-8.1-3.5-8.7-8  c0-0.1,0-0.2,0-0.2h17.5C56.7,21.1,56.7,21.3,56.7,21.3z"/>
























</svg>