<svg xmlns:svg="http://www.w3.org/2000/svg" xmlns="http://www.w3.org/2000/svg" version="1.0" width="500" height="150" viewBox="55 7 150 30" id="svg3537">
  <defs id="defs3539"/>
  
  <path d="M 90.3,36.6 L 64.35,36.6 L 64.35,9.15 L 92.175,9.15 L 93.525,9.45 L 94.875,9.825 L 96.075,10.35 L 97.05,10.875 L 97.95,11.55 C 100.565,14.08875 101.04875,17.65375 101.175,21.15 C 101.73,29.25625 99.78,36.83125 90.3,36.6 z M 92.475,22.05 L 92.475,21 L 92.325,19.8 L 91.95,18.825 L 91.425,17.925 L 90.75,17.1 L 89.925,16.425 L 88.575,16.125 L 87,15.9 L 73.2,15.9 L 73.2,30 L 87,30 L 88.575,29.625 L 89.925,29.325 L 90.75,28.65 L 91.425,27.75 C 92.9075,25.8175 92.3625,24.2825 92.475,22.05 z M 193.125,9.15 L 193.125,15.9 L 180,15.9 L 180,36.6 L 171.15,36.6 L 171.15,15.9 L 158.25,15.9 L 158.25,9.15 L 193.125,9.15 z M 120.075,9.15 L 129.975,27.075 L 139.8,9.15 L 154.125,9.15 L 154.125,36.6 L 145.275,36.6 L 145.275,15.9 L 144.9,15.9 L 134.025,36.6 L 125.85,36.6 L 114.975,15.9 L 114.6,15.9 L 114.6,36.6 L 105.75,36.6 L 105.75,9.15 L 120.075,9.15" id="path3215" style="fill:#ffffff;"/>
</svg>