<?xml version="1.0" standalone="no"?>
<!DOCTYPE svg PUBLIC "-//W3C//DTD SVG 20010904//EN"
 "http://www.w3.org/TR/2001/REC-SVG-20010904/DTD/svg10.dtd">
<svg version="1.0" xmlns="http://www.w3.org/2000/svg"
 width="700.000000pt" height="490.000000pt" viewBox="0 0 700.000000 490.000000"
 preserveAspectRatio="xMidYMid meet">

<g transform="translate(0.000000,490.000000) scale(0.100000,-0.100000)"
fill="#000000" stroke="none">
<path d="M0 2450 l0 -2450 3500 0 3500 0 0 2450 0 2450 -3500 0 -3500 0 0
-2450z m5668 1278 c-2 -26 2 -35 24 -47 25 -15 28 -14 52 8 33 31 52 18 20
-14 -26 -26 -28 -33 -16 -52 6 -10 17 -8 48 8 85 44 201 7 241 -77 11 -21 24
-34 36 -34 34 0 89 -33 109 -64 15 -24 18 -44 15 -85 -3 -47 -9 -59 -40 -88
l-37 -33 -237 0 c-218 0 -241 2 -270 20 -66 40 -83 142 -32 196 19 20 20 24 6
24 -9 0 -17 -4 -17 -10 0 -12 -40 -34 -48 -26 -3 3 5 17 17 30 18 19 21 31 16
55 -6 28 -10 31 -46 31 -49 0 -51 18 -2 22 30 2 38 8 46 31 7 23 5 33 -12 51
-12 12 -21 25 -21 29 0 14 24 7 45 -13 19 -18 26 -19 49 -9 20 10 26 19 26 46
0 23 5 33 16 33 11 0 14 -8 12 -32z m-1851 -28 c18 -10 39 -33 48 -50 15 -29
16 -30 45 -15 36 19 100 19 144 1 35 -14 92 -70 101 -97 3 -10 21 -19 43 -23
38 -6 78 -39 101 -83 27 -53 3 -130 -52 -163 -29 -18 -52 -20 -266 -20 -227 0
-236 1 -268 23 -47 32 -68 95 -50 152 5 15 -2 28 -23 48 -34 33 -53 90 -44
136 l7 32 21 -37 c28 -50 68 -64 105 -37 57 43 47 108 -22 138 l-32 14 55 1
c37 0 65 -6 87 -20z m-2609 -70 c29 -13 51 -33 70 -64 15 -26 35 -46 45 -46
10 0 30 -6 45 -14 98 -51 110 -174 23 -235 -28 -20 -42 -21 -271 -21 l-242 0
-40 40 c-40 40 -40 41 -36 102 4 53 9 65 36 89 18 16 49 32 71 35 31 5 42 12
51 34 36 87 151 124 248 80z m941 0 c40 -20 76 -58 86 -91 4 -10 15 -19 27
-19 35 0 90 -32 109 -64 12 -19 19 -50 19 -80 0 -43 -4 -53 -39 -87 -38 -38
-40 -39 -117 -40 -44 -1 -85 -1 -91 0 -22 3 -14 -12 29 -56 l41 -42 -51 -32
c-29 -18 -52 -34 -52 -36 0 -3 12 -25 26 -51 l26 -47 -45 50 c-26 28 -46 52
-47 55 0 3 23 19 51 35 l51 30 -52 48 c-40 37 -59 47 -86 47 -41 0 -43 -11 -6
-40 25 -21 26 -23 9 -34 -52 -31 -53 -33 -40 -65 6 -17 10 -31 9 -31 -1 0 -17
15 -35 34 l-32 33 36 22 36 21 -33 28 c-27 24 -43 29 -92 31 -117 4 -178 96
-131 195 16 33 78 76 111 76 11 1 30 18 45 44 48 78 156 108 238 66z m968 -16
c21 -17 45 -44 53 -61 11 -24 24 -32 51 -37 64 -10 119 -74 119 -137 0 -36
-31 -88 -65 -109 -30 -19 -49 -20 -266 -20 -211 0 -237 2 -265 19 -61 37 -79
126 -39 188 21 32 73 63 106 63 19 0 29 6 33 23 27 99 186 140 273 71z m1861
16 c29 -13 51 -33 70 -64 16 -27 34 -45 45 -46 11 0 35 -8 54 -17 89 -42 98
-168 17 -232 -25 -20 -38 -21 -263 -21 -169 0 -243 4 -261 13 -63 32 -89 130
-51 193 19 31 74 64 108 64 11 1 29 19 45 46 32 52 90 84 153 84 22 0 59 -9
83 -20z m-155 -465 c21 -45 22 -79 1 -99 -18 -18 -17 -18 -39 -10 -31 12 -37
52 -16 100 11 24 24 44 29 44 4 0 16 -16 25 -35z m192 5 c8 -16 15 -42 15 -59
0 -28 -22 -61 -40 -61 -17 0 -40 32 -40 55 0 28 30 95 42 95 4 0 14 -13 23
-30z m-2070 -16 c19 -20 16 -43 -7 -58 -38 -23 -78 35 -42 61 23 17 29 16 49
-3z m199 -6 c11 -15 12 -26 5 -40 -13 -24 -55 -23 -69 1 -13 25 -13 27 6 45
21 22 40 20 58 -6z m1777 -144 c18 -39 19 -50 9 -75 -18 -42 -60 -38 -74 8 -7
22 25 113 39 113 3 0 15 -21 26 -46z m-1876 -13 c9 -31 -5 -51 -36 -51 -22 0
-30 6 -35 24 -8 34 2 46 36 46 19 0 31 -6 35 -19z m-1820 -242 c98 -25 173
-133 162 -235 -7 -64 -24 -100 -74 -147 -79 -78 -223 -77 -307 1 -118 111 -73
323 81 378 47 16 81 17 138 3z m940 0 c60 -15 129 -77 151 -134 37 -99 0 -215
-90 -274 -56 -37 -157 -42 -220 -11 -136 65 -168 243 -65 355 61 66 134 87
224 64z m985 -14 c129 -67 162 -253 62 -358 -98 -103 -273 -88 -352 30 -39 60
-49 137 -25 200 22 58 92 127 142 142 50 13 133 7 173 -14z m949 -4 c84 -43
132 -145 112 -240 -23 -112 -110 -184 -222 -182 -64 1 -107 18 -152 60 -127
117 -76 328 91 382 41 13 124 3 171 -20z m896 18 c44 -11 53 -29 15 -29 -33 0
-64 -20 -89 -56 -19 -28 -23 -43 -18 -81 7 -62 58 -113 113 -113 35 0 104 26
104 39 0 3 10 17 21 31 l20 25 -6 -50 c-17 -124 -109 -205 -231 -205 -22 0
-62 12 -94 28 -134 68 -161 248 -52 355 61 60 131 78 217 56z m975 6 c0 -3
-16 -20 -36 -37 -120 -105 -83 -290 69 -346 l51 -19 -33 -18 c-56 -28 -130
-31 -187 -6 -94 42 -137 107 -138 208 0 97 56 175 150 208 38 14 124 20 124
10z m-4870 -775 c0 -49 3 -62 18 -66 9 -3 32 -13 50 -21 l33 -17 44 44 c58 57
72 43 15 -15 l-44 -45 17 -35 c9 -20 17 -42 17 -50 0 -12 15 -15 65 -15 37 0
65 -4 65 -10 0 -6 -28 -10 -65 -10 -52 0 -65 -3 -65 -15 0 -9 -9 -34 -20 -56
l-21 -39 -108 1 c-129 1 -151 10 -167 64 l-11 40 -61 3 c-80 4 -81 22 -2 22
49 0 62 3 66 18 3 9 12 31 19 49 14 32 14 33 -30 74 -30 29 -42 46 -35 53 7 7
24 -4 54 -33 43 -42 43 -42 77 -27 19 8 42 17 52 20 14 4 17 17 17 66 0 33 4
60 10 60 6 0 10 -27 10 -60z m785 45 c20 -8 44 -29 56 -49 20 -34 20 -34 54
-20 87 36 186 -2 231 -87 9 -19 25 -29 50 -34 43 -8 99 -59 110 -98 9 -40 -4
-93 -32 -126 -37 -45 -96 -54 -324 -49 -182 3 -197 5 -231 26 -49 30 -77 99
-59 146 9 24 6 31 -20 57 -35 35 -53 93 -43 139 l6 33 16 -34 c9 -18 28 -40
42 -48 58 -33 131 40 98 98 -8 14 -30 34 -49 43 l-35 17 48 1 c26 0 63 -7 82
-15z m915 -18 c0 -27 6 -36 26 -46 24 -11 30 -9 54 14 35 33 53 15 20 -20 -14
-15 -20 -30 -16 -43 6 -19 7 -19 43 -1 92 47 219 5 252 -84 7 -18 18 -27 32
-27 93 0 158 -115 114 -201 -28 -53 -68 -69 -175 -69 l-94 0 48 -49 49 -49
-52 -32 c-28 -17 -51 -35 -51 -39 0 -3 11 -23 25 -43 36 -54 31 -53 -20 1 -25
26 -45 51 -45 54 0 3 22 18 50 34 27 15 50 30 49 33 0 3 -23 24 -50 48 -38 32
-58 42 -84 42 -42 0 -44 -7 -7 -37 23 -19 25 -24 12 -32 -55 -34 -56 -38 -37
-72 10 -17 16 -34 14 -36 -6 -5 -67 65 -67 77 0 5 14 17 31 26 l32 16 -26 26
c-22 22 -39 27 -99 33 -66 6 -74 9 -106 44 -32 35 -34 40 -30 96 3 36 11 65
21 77 29 31 19 38 -12 8 -39 -37 -63 -25 -26 14 22 23 24 31 16 53 -9 22 -17
27 -46 27 -25 0 -35 4 -35 15 0 12 9 15 37 13 32 -3 37 0 46 26 8 24 6 32 -17
53 -29 26 -30 29 -17 38 5 3 21 -6 35 -20 22 -22 28 -23 55 -14 17 6 31 16 30
23 -3 28 2 56 11 56 6 0 10 -15 10 -33z m1000 -3 c22 -20 40 -42 40 -50 0 -11
6 -10 35 2 48 20 109 18 155 -6 38 -20 90 -76 90 -98 0 -7 9 -12 21 -12 12 0
36 -7 55 -16 108 -51 102 -207 -10 -249 -36 -14 -77 -16 -259 -13 -199 3 -218
5 -244 24 -45 33 -65 81 -59 140 5 40 3 53 -9 58 -28 10 -55 69 -55 118 0 58
12 68 28 24 34 -93 162 -48 138 47 -4 17 -20 34 -44 46 l-37 20 57 1 c53 0 62
-3 98 -36z m1070 -22 l0 -58 52 -22 52 -22 42 41 c57 56 75 41 19 -17 -43 -44
-44 -46 -30 -77 7 -18 16 -40 19 -49 4 -15 17 -18 66 -18 78 0 78 -18 -1 -22
l-61 -3 -21 -49 -21 -49 47 -43 c26 -23 43 -45 37 -49 -11 -7 -50 12 -50 25 0
5 -13 18 -28 29 -27 19 -30 19 -75 3 l-47 -17 0 -62 c0 -35 -4 -63 -10 -63 -6
0 -10 28 -10 65 0 50 -3 65 -15 65 -8 0 -30 8 -50 17 l-35 17 -45 -44 c-58
-57 -72 -43 -15 15 l44 45 -17 35 c-9 20 -17 42 -17 50 0 12 -15 15 -65 15
-82 0 -86 18 -4 22 l61 3 19 49 18 49 -39 37 c-37 35 -50 60 -33 60 4 0 26
-19 50 -42 l42 -42 33 17 c18 8 41 18 51 21 14 4 17 17 17 66 0 33 4 60 10 60
6 0 10 -26 10 -58z m760 25 c0 -27 6 -36 26 -46 24 -11 30 -9 54 14 35 33 53
15 20 -20 -14 -15 -20 -30 -16 -43 6 -19 7 -19 43 -1 91 46 219 2 253 -87 6
-15 21 -23 47 -27 52 -9 103 -61 110 -114 7 -52 -17 -107 -59 -133 -31 -18
-50 -20 -270 -20 l-237 0 -35 31 c-43 37 -60 88 -46 140 6 20 17 42 25 49 8 7
15 17 15 23 0 6 -13 -2 -29 -17 -39 -37 -63 -25 -26 14 22 23 24 31 16 53 -9
22 -17 27 -46 27 -25 0 -35 4 -35 16 0 9 8 14 18 13 39 -4 53 2 63 28 9 25 7
31 -17 51 -20 18 -24 26 -14 32 8 5 21 -1 35 -18 20 -23 25 -25 49 -14 24 11
29 21 29 65 0 9 6 17 13 17 9 0 14 -12 14 -33z m-3632 -519 c5 -39 -30 -56
-58 -28 -28 28 -11 63 28 58 21 -2 28 -9 30 -30z m190 20 c32 -32 -8 -80 -48
-58 -34 18 -19 70 20 70 9 0 21 -5 28 -12z m3587 -119 c17 -37 18 -44 4 -68
-19 -34 -49 -33 -68 1 -14 25 -14 31 7 73 12 25 26 44 30 41 5 -3 17 -24 27
-47z m188 16 c21 -45 22 -79 1 -99 -30 -31 -64 -12 -64 36 0 28 29 98 40 98 3
0 14 -16 23 -35z m-3889 -41 c21 -8 21 -60 0 -68 -22 -8 -54 2 -55 17 -5 45
18 65 55 51z m3807 -187 c-18 -47 -65 -48 -77 -1 -5 18 0 41 16 73 l23 46 23
-49 c15 -32 20 -56 15 -69z"/>
<path d="M5612 3653 c-15 -6 -42 -56 -42 -77 0 -8 10 -27 23 -41 19 -23 27
-25 62 -20 31 5 45 14 58 37 23 40 22 54 -8 83 -23 24 -61 31 -93 18z"/>
<path d="M3788 3640 c4 -45 2 -52 -27 -81 -29 -29 -36 -31 -81 -27 -28 3 -50
2 -50 -2 0 -4 11 -19 25 -34 l25 -27 27 20 c14 12 42 24 63 27 30 5 40 13 58
47 28 53 28 68 0 94 -42 37 -45 36 -40 -17z"/>
<path d="M1091 2719 c-128 -51 -169 -213 -79 -315 49 -56 122 -83 186 -69 69
15 104 198 55 291 -38 72 -71 104 -106 103 -18 0 -43 -5 -56 -10z"/>
<path d="M2025 2716 c-38 -17 -90 -72 -104 -109 -39 -103 16 -228 116 -262 45
-16 62 -6 96 60 17 32 22 58 22 125 0 80 -2 89 -35 143 -36 60 -46 65 -95 43z"/>
<path d="M2908 2673 c-39 -43 -58 -87 -58 -139 0 -58 31 -126 70 -154 l29 -21
16 24 c43 66 48 185 10 265 -13 28 -28 52 -33 52 -4 0 -20 -12 -34 -27z"/>
<path d="M3806 2604 c-21 -61 -20 -99 3 -150 25 -55 37 -60 50 -22 22 63 5
205 -25 215 -7 2 -19 -17 -28 -43z"/>
<path d="M4839 2707 c-63 -33 -102 -99 -102 -172 0 -168 206 -260 326 -147 16
15 35 39 42 53 l14 26 -42 -15 c-55 -20 -107 -10 -152 29 -65 57 -71 149 -13
214 l30 35 -29 0 c-17 0 -50 -10 -74 -23z"/>
<path d="M5835 2713 c-103 -54 -142 -165 -92 -263 12 -24 39 -57 60 -74 31
-25 49 -31 102 -34 71 -5 81 4 36 30 -42 23 -88 91 -100 146 -12 59 0 122 35
175 21 33 22 37 7 37 -10 -1 -31 -8 -48 -17z"/>
<path d="M1868 1961 c4 -46 2 -53 -26 -81 -33 -33 -84 -40 -125 -19 -21 12
-21 12 -3 -17 31 -50 45 -56 74 -34 14 11 42 23 63 26 22 4 39 13 43 23 2 9
13 28 23 44 16 25 16 30 3 54 -8 14 -24 32 -36 40 -21 13 -21 12 -16 -36z"/>
<path d="M2731 1914 c-43 -55 -9 -132 52 -120 16 3 35 6 42 6 6 0 20 17 29 39
14 30 16 43 7 60 -26 48 -98 56 -130 15z"/>
<path d="M3750 1991 c32 -60 -17 -141 -85 -141 -20 0 -45 5 -56 10 -28 16 -24
-4 10 -42 l28 -32 27 21 c14 11 41 24 59 27 25 5 41 17 60 47 15 22 27 46 27
53 0 14 -58 76 -72 76 -5 0 -4 -8 2 -19z"/>
<path d="M5561 1914 c-12 -15 -21 -39 -21 -53 0 -37 36 -74 64 -67 11 3 30 6
42 6 13 0 26 12 37 35 15 32 16 39 2 64 -25 50 -91 57 -124 15z"/>
</g>
</svg>
